<svg width="27" height="28" viewBox="0 0 27 28" fill="none" xmlns="http://www.w3.org/2000/svg">
<path d="M4.93004 0.848145C2.19901 0.848145 0 3.04765 0 5.77929V22.9231C0 25.6547 2.19901 27.8542 4.93004 27.8542H14.2197V17.2965H11.4286V13.4954H14.2197V10.248C14.2197 7.69655 15.8689 5.35394 19.6678 5.35394C21.206 5.35394 22.3434 5.50164 22.3434 5.50164L22.2539 9.05126C22.2539 9.05126 21.0939 9.04029 19.8281 9.04029C18.4582 9.04029 18.2385 9.67164 18.2385 10.7197V13.4955H22.3628L22.183 17.2966H18.2385V27.8542H22.07C24.801 27.8542 27 25.6547 27 22.9231V5.77931C27 3.04768 24.801 0.848172 22.07 0.848172H4.93001L4.93004 0.848145Z" fill="white"/>
</svg>
