<svg width="28" height="28" viewBox="0 0 28 28" fill="none" xmlns="http://www.w3.org/2000/svg">
<path d="M16.9003 14.3041C16.9003 12.7909 15.6635 11.5596 14.1433 11.5596C12.6233 11.5596 11.3866 12.7909 11.3866 14.3041C11.3866 15.8178 12.6233 17.0489 14.1433 17.0489C15.6635 17.0489 16.9003 15.8178 16.9003 14.3041ZM20.9961 0.0170898H7.00415C3.14919 0.0170898 0.0129395 3.13971 0.0129395 6.97781V8.91725H10.3005C11.386 8.14737 12.7118 7.69256 14.1433 7.69256C15.5748 7.69256 16.9007 8.14737 17.9863 8.91725H27.9873V6.97781C27.9873 3.13968 24.851 0.0170898 20.9961 0.0170898ZM23.8275 6.63727C23.8275 7.06262 23.478 7.41069 23.0507 7.41069H20.6505C20.2232 7.41069 19.8737 7.06262 19.8737 6.63727V4.24741C19.8737 3.82209 20.2232 3.474 20.6505 3.474H23.0507C23.478 3.474 23.8275 3.82204 23.8275 4.24741V6.63727ZM20.7842 14.3041C20.7842 17.9502 17.805 20.9159 14.1433 20.9159C10.4815 20.9159 7.50252 17.9502 7.50252 14.3041C7.50252 13.3004 7.7296 12.3485 8.13342 11.4952H0.0129395V21.0226C0.0129395 24.861 3.14919 27.9833 7.00415 27.9833H20.9961C24.8511 27.9833 27.9873 24.861 27.9873 21.0226V11.4952H20.1533C20.5571 12.3485 20.7842 13.3004 20.7842 14.3041Z" fill="white"/>
</svg>
