<svg width="28" height="29" viewBox="0 0 28 29" fill="none" xmlns="http://www.w3.org/2000/svg">
<path d="M5.48695 0.847656C2.46956 0.847656 0 3.31774 0 6.3359V23.3669C0 26.385 2.4695 28.8542 5.48695 28.8542H22.5139C25.5314 28.8542 28 26.385 28 23.3669V6.3359C28 3.3178 25.5314 0.847656 22.5139 0.847656H5.48695ZM6.86701 5.46931C8.31378 5.46931 9.20493 6.41931 9.23244 7.66809C9.23244 8.88929 8.31373 9.866 6.83902 9.866H6.81188C5.39264 9.866 4.47532 8.88934 4.47532 7.66809C4.47532 6.41934 5.42043 5.46931 6.86701 5.46931ZM19.3347 11.3059C22.1171 11.3059 24.2029 13.1249 24.2029 17.034V24.3314H19.9744V17.5232C19.9744 15.8124 19.3624 14.6452 17.8321 14.6452C16.6639 14.6452 15.9676 15.4319 15.6619 16.1919C15.5502 16.4638 15.5227 16.8435 15.5227 17.2239V24.3314H11.2942C11.2942 24.3314 11.3497 12.7985 11.2942 11.6044H15.5236V13.4067C16.0855 12.5395 17.0907 11.3059 19.3347 11.3059ZM4.72474 11.6053H8.95327V24.3315H4.72474V11.6053Z" fill="white"/>
</svg>
