<svg width="473" height="556" viewBox="0 0 473 556" fill="none" xmlns="http://www.w3.org/2000/svg">
<g filter="url(#filter0_d)">
<rect x="10" y="69" width="453" height="469" rx="48" fill="white"/>
</g>
<circle cx="249" cy="72" r="62" fill="#5375FF"/>
<path d="M64 464.654V461.346L61.288 460.812C61.141 460.321 60.943 459.846 60.699 459.394L62.212 457.124L59.875 454.788L57.606 456.301C57.154 456.057 56.679 455.86 56.188 455.711L55.654 453H52.346L51.812 455.712C51.321 455.859 50.846 456.057 50.394 456.301L48.124 454.788L45.788 457.125L47.301 459.394C47.057 459.846 46.86 460.321 46.711 460.812L44 461.346V464.654L46.712 465.188C46.859 465.679 47.057 466.154 47.301 466.606L45.788 468.876L48.125 471.212L50.394 469.699C50.846 469.943 51.321 470.141 51.812 470.289L52.346 473H55.654L56.188 470.288C56.679 470.141 57.154 469.943 57.606 469.699L59.876 471.212L62.212 468.875L60.699 466.606C60.943 466.154 61.141 465.679 61.289 465.188L64 464.654ZM60.704 468.726L59.726 469.704L57.645 468.316C56.589 468.956 56.239 469.078 55.18 469.34L54.69 471.828H53.31L52.82 469.34C51.615 469.042 51.282 468.878 50.355 468.316L48.275 469.704L47.296 468.726L48.684 466.645C48.039 465.58 47.92 465.23 47.66 464.18L45.172 463.69V462.31L47.66 461.82C47.916 460.784 48.033 460.428 48.684 459.355L47.296 457.275L48.274 456.296L50.355 457.684C51.42 457.038 51.772 456.919 52.82 456.66L53.31 454.172H54.69L55.18 456.66C56.387 456.958 56.72 457.123 57.645 457.684L59.725 456.296L60.704 457.274L59.316 459.355C59.956 460.409 60.078 460.759 60.34 461.82L62.828 462.31V463.69L60.34 464.18C60.042 465.387 59.878 465.719 59.316 466.645L60.704 468.725V468.726Z" fill="#0C111C"/>
<path d="M53.9999 458.898C51.7379 458.898 49.8979 460.738 49.8979 463C49.8979 465.262 51.7379 467.102 53.9999 467.102C56.2619 467.102 58.1019 465.262 58.1019 463C58.1019 460.738 56.2619 458.898 53.9999 458.898ZM53.9999 465.93C52.3849 465.93 51.0699 464.615 51.0699 463C51.0699 461.385 52.3849 460.07 53.9999 460.07C55.6149 460.07 56.9299 461.385 56.9299 463C56.9299 464.615 55.6149 465.93 53.9999 465.93Z" fill="#0C111C"/>
<g filter="url(#filter1_d)">
<circle cx="236" cy="62" r="62" fill="white"/>
</g>
<g clip-path="url(#clip0)">
<path d="M268.406 94.0001H207.833C205.281 94.0001 203.239 91.9923 203.239 89.4826V44.4199C203.239 41.9102 205.281 39.9025 207.833 39.9025H268.406C270.958 39.9025 273 41.9102 273 44.4199V89.4826C273 91.9366 270.958 94.0001 268.406 94.0001Z" fill="#5375FF"/>
<path d="M260.012 38.2293C262.451 38.2293 264.493 40.1812 264.493 42.6352V81.2285C264.493 83.6266 262.507 85.6344 260.012 85.6344H205.451C203.012 85.6344 200.97 83.6824 200.97 81.2285V42.5794C200.97 40.1812 202.955 38.1735 205.451 38.1735H260.012V38.2293ZM260.012 34.3253H205.451C200.8 34.3253 197 38.0062 197 42.5794V81.1727C197 85.7459 200.8 89.4826 205.451 89.4826H260.012C264.663 89.4826 268.463 85.7459 268.463 81.1727V42.5794C268.463 38.0062 264.663 34.3253 260.012 34.3253Z" fill="black"/>
<path d="M233.128 26.3501C237.666 26.3501 241.352 29.8637 241.579 34.2696H246.003C245.833 27.4655 240.161 22 233.128 22C226.096 22 220.481 27.4655 220.254 34.3253H224.678C224.905 29.8637 228.591 26.3501 233.128 26.3501Z" fill="black"/>
<path d="M267.328 49.3835L236.588 60.2588C234.093 61.1511 231.427 61.0953 228.988 60.1472L198.702 48.2681" stroke="black" stroke-miterlimit="10"/>
<path d="M232.448 66.1148C230.746 66.1148 229.328 64.7205 229.328 63.0474V59.1434C229.328 57.4703 230.746 56.076 232.448 56.076C234.149 56.076 235.567 57.4703 235.567 59.1434V63.0474C235.567 64.7205 234.149 66.1148 232.448 66.1148Z" fill="#5375FF"/>
<path d="M232.448 57.4703C233.412 57.4703 234.149 58.1953 234.149 59.1434V63.0474C234.149 63.9955 233.412 64.7205 232.448 64.7205C231.484 64.7205 230.746 63.9955 230.746 63.0474V59.1434C230.746 58.1953 231.484 57.4703 232.448 57.4703ZM232.448 54.6818C229.952 54.6818 227.911 56.6895 227.911 59.1434V63.0474C227.911 65.5013 229.952 67.509 232.448 67.509C234.943 67.509 236.985 65.5013 236.985 63.0474V59.1434C236.985 56.6337 234.943 54.6818 232.448 54.6818Z" fill="black"/>
</g>
<g clip-path="url(#clip1)">
<path d="M89.3 100C88.5 100 87.7 100.3 87.2 100.9C86.6 101.5 86.3 102.2 86.3 103C86.3 103.8 86 104.5 85.4 105.1C84.8 105.7 84 106 83.2 106C82.4 106 81.6 105.7 81.1 105.1C80.5 104.5 80.2 103.8 80.2 103C80.2 101.8 80 100.6 79.5 99.6C79 98.5 78.4 97.5 77.5 96.7C76.7 95.9 75.7 95.2 74.5 94.7C73.5 94.2 72.3 94 71.1 94C69.9 94 68.7 94.2 67.6 94.7C66.5 95.2 65.5 95.8 64.6 96.7C63.8 97.5 63.1 98.5 62.6 99.6C62.2 100.6 62 101.8 62 103C62 103.8 62.3 104.6 62.9 105.1C63.5 105.7 64.2 106 65 106C65.8 106 66.6 105.7 67.1 105.1C67.8 104.6 68.1 103.8 68.1 103C68.1 102.2 68.4 101.5 69 100.9C69.6 100.3 70.3 100 71.1 100C71.9 100 72.7 100.3 73.2 100.9C73.8 101.5 74.1 102.2 74.1 103C74.1 105.4 75.1 107.7 76.8 109.4C78.5 111.1 80.8 112 83.2 112C85.6 112 87.9 111.1 89.6 109.4C91.3 107.7 92.3 105.4 92.3 103C92.3 102.2 92 101.4 91.4 100.9C90.9 100.3 90.1 100 89.3 100Z" fill="#5977F7"/>
</g>
<rect x="169" y="154" width="147" height="24" rx="5" fill="#EBEDF2"/>
<g clip-path="url(#clip2)">
<path d="M182.5 179.618C180 179.618 178 181.73 178 184.371C178 187.012 180 189.125 182.5 189.125C185 189.125 187 187.012 187 184.371C187 181.73 185 179.618 182.5 179.618ZM182.5 187.54C180.8 187.54 179.5 186.167 179.5 184.371C179.5 182.576 180.8 181.202 182.5 181.202C184.2 181.202 185.5 182.576 185.5 184.371C185.5 186.167 184.2 187.54 182.5 187.54Z" fill="#676971"/>
<path d="M189.9 191.872C189.6 192.189 189.3 192.189 189 191.977L184.8 187.54C184.6 187.329 184.6 187.012 184.8 186.695L184.9 186.59C185.1 186.378 185.5 186.378 185.7 186.59L189.9 191.026C190.1 191.343 190.1 191.66 189.9 191.872Z" fill="#676971"/>
</g>
<g clip-path="url(#clip3)">
<path d="M179.5 24.1376C177 24.1376 175 25.3603 175 26.8886C175 28.417 177 29.6397 179.5 29.6397C182 29.6397 184 28.417 184 26.8886C184 25.3603 182 24.1376 179.5 24.1376ZM179.5 28.7227C177.8 28.7227 176.5 27.9279 176.5 26.8886C176.5 25.8494 177.8 25.0546 179.5 25.0546C181.2 25.0546 182.5 25.8494 182.5 26.8886C182.5 27.9279 181.2 28.7227 179.5 28.7227Z" fill="#676971"/>
<path d="M186.9 31.2291C186.6 31.4125 186.3 31.4125 186 31.2903L181.8 28.7226C181.6 28.6003 181.6 28.4169 181.8 28.2335L181.9 28.1724C182.1 28.0501 182.5 28.0501 182.7 28.1724L186.9 30.7401C187.1 30.9235 187.1 31.1069 186.9 31.2291Z" fill="#676971"/>
</g>
<circle cx="410.5" cy="110.5" r="13.5" fill="#EBEDF2"/>
<path d="M54.5 239.333C53.121 239.333 52 240.455 52 241.833C52 243.212 53.121 244.333 54.5 244.333C55.879 244.333 57 243.211 57 241.833C57 240.454 55.878 239.333 54.5 239.333ZM54.5 243.146C53.776 243.146 53.187 242.557 53.187 241.833C53.187 241.109 53.776 240.52 54.5 240.52C55.224 240.52 55.813 241.109 55.813 241.833C55.813 242.557 55.224 243.146 54.5 243.146ZM59.494 249.489C59.324 248.299 58.729 247.206 57.819 246.411C56.901 245.608 55.722 245.166 54.5 245.166C53.278 245.166 52.1 245.608 51.18 246.411C50.271 247.206 49.676 248.299 49.506 249.489C49.482 249.659 49.532 249.832 49.646 249.962C49.758 250.092 49.922 250.166 50.094 250.166H58.906C59.078 250.166 59.242 250.092 59.355 249.962C59.468 249.832 59.518 249.659 59.494 249.489ZM50.844 248.979C51.361 247.443 52.828 246.353 54.5 246.353C56.17 246.353 57.638 247.443 58.157 248.98H50.843L50.844 248.979ZM54.24 236C53.923 236 53.667 236.256 53.667 236.572C53.667 236.889 53.923 237.145 54.239 237.145C56.968 237.145 59.188 239.365 59.188 242.094C59.188 242.41 59.444 242.666 59.761 242.666C60.077 242.666 60.333 242.41 60.333 242.094C60.333 238.734 57.6 236 54.239 236H54.24Z" fill="#5375FF"/>
<path d="M61.502 234.83C59.57 232.898 57 231.833 54.266 231.833C53.936 231.833 53.666 232.101 53.666 232.433C53.666 232.763 53.936 233.033 54.266 233.033C59.248 233.033 63.301 237.085 63.301 242.067C63.301 242.397 63.569 242.667 63.901 242.667C64.231 242.667 64.5 242.397 64.5 242.067C64.5 239.333 63.435 236.763 61.502 234.83Z" fill="#5375FF"/>
<g clip-path="url(#clip4)">
<path d="M63.099 324.478C63.403 321.155 60.759 318.667 57.724 318.667C56.355 318.667 55.054 319.167 54.061 320.057C53.069 319.167 51.767 318.667 50.399 318.667C46.155 318.667 43.039 323.352 46.459 328.017C47.211 329.043 48.253 330.037 49.554 330.972C51.741 332.542 53.898 333.402 53.989 333.437C54.148 333.5 54.313 333.497 54.486 333.424C56.116 334.589 57.721 335.236 57.856 335.289C58.006 335.348 58.175 335.349 58.329 335.286C58.396 335.259 59.992 334.598 61.609 333.393C62.574 332.673 63.347 331.907 63.906 331.115C65.713 328.555 65.169 325.818 63.099 324.478ZM50.399 319.901C51.632 319.901 52.794 320.426 53.586 321.342C53.836 321.631 54.287 321.631 54.536 321.342C55.329 320.427 56.49 319.902 57.724 319.902C59.999 319.902 61.886 321.692 61.874 323.935C60.551 323.582 59.074 323.863 57.968 324.794C57.201 324.148 56.218 323.788 55.188 323.788C51.888 323.788 49.395 327.442 52.058 331.103C43.002 325.924 46.22 319.901 50.4 319.901H50.399ZM58.084 334.041C55.558 332.927 52.186 330.669 52.186 327.921C52.186 326.322 53.532 325.022 55.188 325.022C56.08 325.022 56.92 325.402 57.493 326.064C57.743 326.353 58.194 326.353 58.443 326.064C59.016 325.402 59.856 325.022 60.749 325.022C62.404 325.022 63.75 326.322 63.75 327.92C63.75 331.24 59.182 333.538 58.084 334.042V334.041Z" fill="#0C111C"/>
</g>
<g clip-path="url(#clip5)">
<path d="M63.099 286.478C63.403 283.155 60.759 280.667 57.724 280.667C56.355 280.667 55.054 281.167 54.061 282.057C53.069 281.167 51.767 280.667 50.399 280.667C46.155 280.667 43.039 285.352 46.459 290.017C47.211 291.043 48.253 292.037 49.554 292.972C51.741 294.542 53.898 295.402 53.989 295.437C54.148 295.5 54.313 295.497 54.486 295.424C56.116 296.589 57.721 297.236 57.856 297.289C58.006 297.348 58.175 297.349 58.329 297.286C58.396 297.259 59.992 296.598 61.609 295.393C62.574 294.673 63.347 293.907 63.906 293.115C65.713 290.555 65.169 287.818 63.099 286.478ZM50.399 281.901C51.632 281.901 52.794 282.426 53.586 283.342C53.836 283.631 54.287 283.631 54.536 283.342C55.329 282.427 56.49 281.902 57.724 281.902C59.999 281.902 61.886 283.692 61.874 285.935C60.551 285.582 59.074 285.863 57.968 286.794C57.201 286.148 56.218 285.788 55.188 285.788C51.888 285.788 49.395 289.442 52.058 293.103C43.002 287.924 46.22 281.901 50.4 281.901H50.399ZM58.084 296.041C55.558 294.927 52.186 292.669 52.186 289.921C52.186 288.322 53.532 287.022 55.188 287.022C56.08 287.022 56.92 287.402 57.493 288.064C57.743 288.353 58.194 288.353 58.443 288.064C59.016 287.402 59.856 287.022 60.749 287.022C62.404 287.022 63.75 288.322 63.75 289.92C63.75 293.24 59.182 295.538 58.084 296.042V296.041Z" fill="#0C111C"/>
</g>
<path d="M60.806 374.253V367.41C60.806 366.357 59.938 365.5 58.871 365.5H46.935C45.868 365.5 45 366.357 45 367.41V374.253C45 375.306 45.868 376.163 46.935 376.163H48.673L48.71 377.887C48.72 378.405 49.324 378.694 49.743 378.382L52.726 376.163H58.871C59.938 376.163 60.806 375.306 60.806 374.253ZM52.51 374.89C52.37 374.89 52.234 374.935 52.122 375.018L49.973 376.617L49.949 375.513C49.942 375.167 49.655 374.89 49.304 374.89H46.935C46.58 374.89 46.29 374.604 46.29 374.253V367.41C46.29 367.059 46.58 366.773 46.935 366.773H58.871C59.227 366.773 59.516 367.059 59.516 367.41V374.253C59.516 374.604 59.226 374.89 58.871 374.89H52.511H52.51ZM65 371.389V376.64C65 377.694 64.132 378.55 63.065 378.55H61.325L61.29 379.88C61.281 380.225 60.994 380.5 60.645 380.5C60.388 380.5 60.531 380.544 57.305 378.55H54.355C53.999 378.55 53.71 378.265 53.71 377.914C53.71 377.562 53.999 377.277 54.355 377.277C57.777 377.277 57.617 377.241 57.832 377.374L60.029 378.731L60.051 377.897C60.06 377.552 60.346 377.277 60.696 377.277H63.065C63.42 377.277 63.71 376.991 63.71 376.64V371.388C63.71 371.038 63.42 370.752 63.065 370.752C62.708 370.752 62.419 370.467 62.419 370.115C62.419 369.764 62.709 369.479 63.065 369.479C64.132 369.479 65 370.335 65 371.389ZM56.935 369.678C56.935 370.029 56.647 370.314 56.29 370.314H49.516C49.16 370.314 48.871 370.029 48.871 369.678C48.871 369.326 49.16 369.041 49.516 369.041H56.29C56.647 369.041 56.935 369.326 56.935 369.678ZM55.766 372.463C55.766 372.814 55.477 373.099 55.121 373.099H50.685C50.329 373.099 50.04 372.814 50.04 372.463C50.04 372.111 50.33 371.826 50.685 371.826H55.121C55.477 371.826 55.766 372.111 55.766 372.463Z" fill="#0C111C"/>
<rect x="104" y="215" width="95" height="132" rx="15" fill="#E7E7E7"/>
<rect x="113" y="301" width="77" height="3" rx="1.5" fill="#B0AFAF"/>
<rect x="130" y="308" width="47" height="3" rx="1.5" fill="#B0AFAF"/>
<circle cx="127" cy="240" r="11" fill="#C4C4C4"/>
<rect x="143" y="233" width="41" height="3" rx="1.5" fill="#B0AFAF"/>
<rect x="143" y="239" width="33" height="1" rx="0.5" fill="#C4C4C4"/>
<rect x="111" y="265" width="82" height="14" rx="2" fill="#E5ECFE"/>
<rect x="111" y="265" width="71" height="14" rx="2" fill="url(#paint0_linear)"/>
<g filter="url(#filter2_d)">
<rect x="114" y="326" width="50" height="14" rx="2" fill="#5375FF"/>
</g>
<path d="M125.857 335.06C126.682 335.06 127.138 334.628 127.141 333.98C127.144 333.227 126.532 333.05 125.878 332.861C125.275 332.684 124.876 332.546 124.876 332.072C124.876 331.664 125.17 331.394 125.74 331.394C126.415 331.394 126.706 331.781 126.748 332.357L127.108 332.279C127.09 331.442 126.562 331.04 125.755 331.04C125.002 331.04 124.459 331.412 124.459 332.099C124.459 332.81 125.026 333.038 125.707 333.221C126.331 333.395 126.73 333.518 126.73 333.998C126.73 334.493 126.385 334.703 125.863 334.703C125.089 334.703 124.702 334.343 124.714 333.665L124.333 333.725C124.315 334.667 125.002 335.06 125.857 335.06ZM129.4 332.063C128.923 332.063 128.566 332.3 128.386 332.669V330.812H127.993V335H128.386V333.491C128.386 332.822 128.794 332.429 129.334 332.429C129.826 332.429 130.063 332.705 130.063 333.317V335H130.456V333.26C130.456 332.474 130.108 332.063 129.4 332.063ZM132.553 335.06C133.42 335.06 133.981 334.415 133.981 333.56C133.981 332.705 133.42 332.063 132.553 332.063C131.686 332.063 131.122 332.705 131.122 333.56C131.122 334.415 131.686 335.06 132.553 335.06ZM132.553 334.709C131.926 334.709 131.521 334.22 131.521 333.56C131.521 332.9 131.926 332.414 132.553 332.414C133.177 332.414 133.582 332.9 133.582 333.56C133.582 334.22 133.177 334.709 132.553 334.709ZM138.071 332.123L137.615 333.8C137.534 334.1 137.465 334.388 137.39 334.697C137.312 334.376 137.234 334.085 137.15 333.797L136.652 332.126H136.205L135.704 333.797C135.62 334.085 135.542 334.376 135.464 334.697C135.389 334.388 135.32 334.1 135.242 333.8L134.786 332.123H134.378L135.203 335H135.701L136.25 333.185C136.316 332.966 136.367 332.75 136.427 332.522C136.487 332.75 136.541 332.966 136.607 333.185L137.153 335H137.651L138.476 332.123H138.071ZM143.556 332.063C143.058 332.063 142.734 332.303 142.578 332.681C142.464 332.276 142.191 332.063 141.717 332.063C141.234 332.063 140.928 332.285 140.772 332.639L140.778 332.123H140.403V335H140.793V333.482C140.793 332.81 141.105 332.42 141.648 332.42C142.107 332.42 142.257 332.699 142.257 333.302V335H142.644V333.482C142.644 332.81 142.953 332.42 143.496 332.42C143.958 332.42 144.108 332.708 144.108 333.302V335H144.495V333.26C144.495 332.492 144.225 332.063 143.556 332.063ZM146.598 335.06C147.465 335.06 148.026 334.415 148.026 333.56C148.026 332.705 147.465 332.063 146.598 332.063C145.731 332.063 145.167 332.705 145.167 333.56C145.167 334.415 145.731 335.06 146.598 335.06ZM146.598 334.709C145.971 334.709 145.566 334.22 145.566 333.56C145.566 332.9 145.971 332.414 146.598 332.414C147.222 332.414 147.627 332.9 147.627 333.56C147.627 334.22 147.222 334.709 146.598 334.709ZM149.116 332.711L149.122 332.123H148.747V335H149.134V333.476C149.134 332.726 149.707 332.354 150.268 332.501L150.295 332.09C149.764 331.973 149.311 332.207 149.116 332.711ZM153.214 333.503C153.214 332.642 152.743 332.063 151.933 332.063C151.12 332.063 150.598 332.72 150.598 333.554C150.598 334.406 151.141 335.06 151.978 335.06C152.56 335.06 152.992 334.79 153.16 334.277L152.851 334.169C152.713 334.511 152.443 334.718 151.978 334.718C151.402 334.718 151.039 334.289 150.994 333.674H153.211C153.214 333.614 153.214 333.557 153.214 333.503ZM151.933 332.399C152.467 332.399 152.779 332.75 152.821 333.35H151.003C151.063 332.789 151.396 332.399 151.933 332.399Z" fill="white"/>
<path d="M120.804 270.1L119.745 272.791C119.643 273.055 119.574 273.253 119.496 273.481C119.418 273.25 119.331 273.007 119.247 272.791L118.188 270.1H117.567V274H117.96V271.294C117.96 271.03 117.957 270.793 117.954 270.535C118.041 270.796 118.131 271.042 118.239 271.312L119.316 274H119.676L120.753 271.312C120.858 271.045 120.948 270.802 121.038 270.529C121.035 270.802 121.032 271.036 121.032 271.294V274H121.425V270.1H120.804ZM124.911 273.697C124.698 273.697 124.668 273.541 124.668 273.388V272.236C124.668 271.684 124.482 271.063 123.534 271.063C122.925 271.063 122.532 271.333 122.37 271.876L122.724 271.993C122.85 271.6 123.072 271.402 123.537 271.402C124.113 271.402 124.281 271.762 124.281 272.233V272.443C124.062 272.416 123.843 272.401 123.642 272.401C122.88 272.401 122.295 272.599 122.295 273.223C122.295 273.751 122.7 274.06 123.282 274.06C123.756 274.06 124.122 273.847 124.311 273.541C124.335 273.856 124.47 274.03 124.83 274.03C124.914 274.03 124.992 274.021 125.079 274.003V273.682C125.019 273.694 124.968 273.697 124.911 273.697ZM123.33 273.718C122.985 273.718 122.718 273.565 122.718 273.214C122.718 272.836 123.081 272.713 123.654 272.713C123.852 272.713 124.062 272.725 124.281 272.749V273.226C124.089 273.532 123.741 273.718 123.33 273.718ZM127.262 273.571C127.142 273.652 127.019 273.691 126.857 273.691C126.5 273.691 126.338 273.496 126.338 273.064V271.456H127.328V271.123H126.338V270.187L125.948 270.241V271.123H125.327V271.456H125.948V273.109C125.948 273.763 126.284 274.045 126.812 274.045C127.043 274.045 127.226 273.988 127.394 273.88L127.262 273.571ZM129.164 274.06C129.794 274.06 130.268 273.757 130.412 273.112L130.064 273.04C129.941 273.463 129.662 273.712 129.167 273.712C128.525 273.712 128.171 273.214 128.171 272.56C128.171 271.909 128.525 271.411 129.167 271.411C129.662 271.411 129.941 271.66 130.064 272.083L130.412 272.011C130.268 271.366 129.794 271.063 129.164 271.063C128.303 271.063 127.772 271.714 127.772 272.56C127.772 273.406 128.303 274.06 129.164 274.06ZM132.583 271.063C132.106 271.063 131.749 271.3 131.569 271.669V269.812H131.176V274H131.569V272.491C131.569 271.822 131.977 271.429 132.517 271.429C133.009 271.429 133.246 271.705 133.246 272.317V274H133.639V272.26C133.639 271.474 133.291 271.063 132.583 271.063Z" fill="white"/>
<path d="M140.583 271.957C140.976 271.795 141.198 271.501 141.198 271.117C141.198 270.451 140.598 270.046 139.743 270.046C138.888 270.046 138.288 270.451 138.288 271.117C138.288 271.501 138.51 271.795 138.903 271.957C138.432 272.125 138.174 272.455 138.174 272.902C138.174 273.595 138.852 274.054 139.743 274.054C140.634 274.054 141.312 273.595 141.312 272.902C141.312 272.455 141.054 272.125 140.583 271.957ZM139.743 270.796C140.04 270.796 140.187 270.961 140.187 271.189C140.187 271.444 140.019 271.6 139.743 271.6C139.467 271.6 139.299 271.444 139.299 271.189C139.299 270.961 139.446 270.796 139.743 270.796ZM139.743 273.298C139.404 273.298 139.197 273.094 139.197 272.806C139.197 272.506 139.398 272.32 139.743 272.32C140.088 272.32 140.289 272.506 140.289 272.806C140.289 273.094 140.082 273.298 139.743 273.298ZM143.157 270.046C142.212 270.046 141.621 270.628 141.621 271.429C141.621 272.137 142.086 272.68 142.848 272.68C143.28 272.68 143.61 272.506 143.784 272.161C143.751 272.83 143.412 273.154 142.854 273.154C142.539 273.154 142.278 273.082 142.035 272.932L141.723 273.76C142.041 273.952 142.44 274.054 142.869 274.054C144.129 274.054 144.735 273.193 144.735 271.915C144.735 270.718 144.18 270.046 143.157 270.046ZM143.148 271.84C142.839 271.84 142.623 271.681 142.623 271.381C142.623 271.081 142.842 270.904 143.172 270.904C143.598 270.904 143.739 271.195 143.733 271.567C143.601 271.75 143.382 271.84 143.148 271.84ZM146.03 272.008C146.618 272.008 147.002 271.6 147.002 271.03C147.002 270.454 146.618 270.046 146.03 270.046C145.442 270.046 145.052 270.454 145.052 271.03C145.052 271.6 145.442 272.008 146.03 272.008ZM145.436 274H146.3L148.856 270.1H147.992L145.436 274ZM146.03 271.33C145.868 271.33 145.772 271.216 145.772 271.03C145.772 270.838 145.868 270.718 146.03 270.718C146.186 270.718 146.282 270.838 146.282 271.03C146.282 271.216 146.186 271.33 146.03 271.33ZM148.256 274.054C148.844 274.054 149.234 273.646 149.234 273.07C149.234 272.5 148.844 272.092 148.256 272.092C147.668 272.092 147.284 272.5 147.284 273.07C147.284 273.646 147.668 274.054 148.256 274.054ZM148.256 273.382C148.1 273.382 148.004 273.262 148.004 273.07C148.004 272.884 148.1 272.77 148.256 272.77C148.418 272.77 148.508 272.884 148.508 273.07C148.508 273.262 148.418 273.382 148.256 273.382Z" fill="white"/>
<rect x="111.2" y="287.2" width="22.6" height="5.6" rx="2.8" stroke="#5375FF" stroke-width="0.4"/>
<rect x="139.2" y="287.2" width="18.6" height="5.6" rx="2.8" stroke="#5375FF" stroke-width="0.4"/>
<rect x="167.2" y="287.2" width="9.6" height="5.6" rx="2.8" stroke="#5375FF" stroke-width="0.4"/>
<rect x="225" y="215" width="95" height="132" rx="15" fill="#E7E7E7"/>
<g clip-path="url(#clip6)">
<g filter="url(#filter3_d)">
<path d="M303.971 325.714H298.029C295.567 325.714 293.571 327.71 293.571 330.171V336.114C293.571 338.576 295.567 340.571 298.029 340.571H303.971C306.433 340.571 308.429 338.576 308.429 336.114V330.171C308.429 327.71 306.433 325.714 303.971 325.714Z" fill="black"/>
</g>
<path d="M303.971 325.714H298.029C295.567 325.714 293.571 327.71 293.571 330.171V336.114C293.571 338.576 295.567 340.571 298.029 340.571H303.971C306.433 340.571 308.429 338.576 308.429 336.114V330.171C308.429 327.71 306.433 325.714 303.971 325.714Z" fill="#5375FF"/>
<path d="M304.19 329.953C304.061 329.824 303.879 329.772 303.702 329.814L303.699 329.814L297.866 331.242C297.305 331.379 296.914 331.877 296.914 332.454V333.224C296.914 333.504 297.136 333.734 297.414 333.746L299.609 334.119C299.655 334.127 299.702 334.112 299.736 334.079L302.322 331.493C302.412 331.402 302.559 331.402 302.65 331.493C302.741 331.583 302.741 331.73 302.65 331.821L300.064 334.407C300.031 334.44 300.016 334.488 300.023 334.534L300.397 336.728C300.409 337.006 300.638 337.228 300.919 337.228H301.689C302.265 337.228 302.764 336.837 302.901 336.278L304.328 330.443L304.329 330.441C304.37 330.264 304.318 330.082 304.19 329.953Z" fill="#FBFBFB"/>
</g>
<rect x="234" y="301" width="77" height="3" rx="1.5" fill="#B0AFAF"/>
<rect x="251" y="308" width="47" height="3" rx="1.5" fill="#B0AFAF"/>
<circle cx="248" cy="240" r="11" fill="#C4C4C4"/>
<rect x="264" y="233" width="41" height="3" rx="1.5" fill="#B0AFAF"/>
<rect x="264" y="239" width="33" height="1" rx="0.5" fill="#C4C4C4"/>
<rect x="232" y="265" width="82" height="14" rx="2" fill="#E5ECFE"/>
<rect x="232" y="265" width="53" height="14" rx="2" fill="url(#paint1_linear)"/>
<g filter="url(#filter4_d)">
<rect x="235" y="326" width="50" height="14" rx="2" fill="#5375FF"/>
</g>
<path d="M246.857 335.06C247.682 335.06 248.138 334.628 248.141 333.98C248.144 333.227 247.532 333.05 246.878 332.861C246.275 332.684 245.876 332.546 245.876 332.072C245.876 331.664 246.17 331.394 246.74 331.394C247.415 331.394 247.706 331.781 247.748 332.357L248.108 332.279C248.09 331.442 247.562 331.04 246.755 331.04C246.002 331.04 245.459 331.412 245.459 332.099C245.459 332.81 246.026 333.038 246.707 333.221C247.331 333.395 247.73 333.518 247.73 333.998C247.73 334.493 247.385 334.703 246.863 334.703C246.089 334.703 245.702 334.343 245.714 333.665L245.333 333.725C245.315 334.667 246.002 335.06 246.857 335.06ZM250.4 332.063C249.923 332.063 249.566 332.3 249.386 332.669V330.812H248.993V335H249.386V333.491C249.386 332.822 249.794 332.429 250.334 332.429C250.826 332.429 251.063 332.705 251.063 333.317V335H251.456V333.26C251.456 332.474 251.108 332.063 250.4 332.063ZM253.553 335.06C254.42 335.06 254.981 334.415 254.981 333.56C254.981 332.705 254.42 332.063 253.553 332.063C252.686 332.063 252.122 332.705 252.122 333.56C252.122 334.415 252.686 335.06 253.553 335.06ZM253.553 334.709C252.926 334.709 252.521 334.22 252.521 333.56C252.521 332.9 252.926 332.414 253.553 332.414C254.177 332.414 254.582 332.9 254.582 333.56C254.582 334.22 254.177 334.709 253.553 334.709ZM259.071 332.123L258.615 333.8C258.534 334.1 258.465 334.388 258.39 334.697C258.312 334.376 258.234 334.085 258.15 333.797L257.652 332.126H257.205L256.704 333.797C256.62 334.085 256.542 334.376 256.464 334.697C256.389 334.388 256.32 334.1 256.242 333.8L255.786 332.123H255.378L256.203 335H256.701L257.25 333.185C257.316 332.966 257.367 332.75 257.427 332.522C257.487 332.75 257.541 332.966 257.607 333.185L258.153 335H258.651L259.476 332.123H259.071ZM264.556 332.063C264.058 332.063 263.734 332.303 263.578 332.681C263.464 332.276 263.191 332.063 262.717 332.063C262.234 332.063 261.928 332.285 261.772 332.639L261.778 332.123H261.403V335H261.793V333.482C261.793 332.81 262.105 332.42 262.648 332.42C263.107 332.42 263.257 332.699 263.257 333.302V335H263.644V333.482C263.644 332.81 263.953 332.42 264.496 332.42C264.958 332.42 265.108 332.708 265.108 333.302V335H265.495V333.26C265.495 332.492 265.225 332.063 264.556 332.063ZM267.598 335.06C268.465 335.06 269.026 334.415 269.026 333.56C269.026 332.705 268.465 332.063 267.598 332.063C266.731 332.063 266.167 332.705 266.167 333.56C266.167 334.415 266.731 335.06 267.598 335.06ZM267.598 334.709C266.971 334.709 266.566 334.22 266.566 333.56C266.566 332.9 266.971 332.414 267.598 332.414C268.222 332.414 268.627 332.9 268.627 333.56C268.627 334.22 268.222 334.709 267.598 334.709ZM270.116 332.711L270.122 332.123H269.747V335H270.134V333.476C270.134 332.726 270.707 332.354 271.268 332.501L271.295 332.09C270.764 331.973 270.311 332.207 270.116 332.711ZM274.214 333.503C274.214 332.642 273.743 332.063 272.933 332.063C272.12 332.063 271.598 332.72 271.598 333.554C271.598 334.406 272.141 335.06 272.978 335.06C273.56 335.06 273.992 334.79 274.16 334.277L273.851 334.169C273.713 334.511 273.443 334.718 272.978 334.718C272.402 334.718 272.039 334.289 271.994 333.674H274.211C274.214 333.614 274.214 333.557 274.214 333.503ZM272.933 332.399C273.467 332.399 273.779 332.75 273.821 333.35H272.003C272.063 332.789 272.396 332.399 272.933 332.399Z" fill="white"/>
<path d="M241.804 270.1L240.745 272.791C240.643 273.055 240.574 273.253 240.496 273.481C240.418 273.25 240.331 273.007 240.247 272.791L239.188 270.1H238.567V274H238.96V271.294C238.96 271.03 238.957 270.793 238.954 270.535C239.041 270.796 239.131 271.042 239.239 271.312L240.316 274H240.676L241.753 271.312C241.858 271.045 241.948 270.802 242.038 270.529C242.035 270.802 242.032 271.036 242.032 271.294V274H242.425V270.1H241.804ZM245.911 273.697C245.698 273.697 245.668 273.541 245.668 273.388V272.236C245.668 271.684 245.482 271.063 244.534 271.063C243.925 271.063 243.532 271.333 243.37 271.876L243.724 271.993C243.85 271.6 244.072 271.402 244.537 271.402C245.113 271.402 245.281 271.762 245.281 272.233V272.443C245.062 272.416 244.843 272.401 244.642 272.401C243.88 272.401 243.295 272.599 243.295 273.223C243.295 273.751 243.7 274.06 244.282 274.06C244.756 274.06 245.122 273.847 245.311 273.541C245.335 273.856 245.47 274.03 245.83 274.03C245.914 274.03 245.992 274.021 246.079 274.003V273.682C246.019 273.694 245.968 273.697 245.911 273.697ZM244.33 273.718C243.985 273.718 243.718 273.565 243.718 273.214C243.718 272.836 244.081 272.713 244.654 272.713C244.852 272.713 245.062 272.725 245.281 272.749V273.226C245.089 273.532 244.741 273.718 244.33 273.718ZM248.262 273.571C248.142 273.652 248.019 273.691 247.857 273.691C247.5 273.691 247.338 273.496 247.338 273.064V271.456H248.328V271.123H247.338V270.187L246.948 270.241V271.123H246.327V271.456H246.948V273.109C246.948 273.763 247.284 274.045 247.812 274.045C248.043 274.045 248.226 273.988 248.394 273.88L248.262 273.571ZM250.164 274.06C250.794 274.06 251.268 273.757 251.412 273.112L251.064 273.04C250.941 273.463 250.662 273.712 250.167 273.712C249.525 273.712 249.171 273.214 249.171 272.56C249.171 271.909 249.525 271.411 250.167 271.411C250.662 271.411 250.941 271.66 251.064 272.083L251.412 272.011C251.268 271.366 250.794 271.063 250.164 271.063C249.303 271.063 248.772 271.714 248.772 272.56C248.772 273.406 249.303 274.06 250.164 274.06ZM253.583 271.063C253.106 271.063 252.749 271.3 252.569 271.669V269.812H252.176V274H252.569V272.491C252.569 271.822 252.977 271.429 253.517 271.429C254.009 271.429 254.246 271.705 254.246 272.317V274H254.639V272.26C254.639 271.474 254.291 271.063 253.583 271.063Z" fill="white"/>
<path d="M261.001 271.399C260.668 271.399 260.428 271.471 260.215 271.66L260.272 270.964H261.994V270.1H259.432L259.288 272.062L260.14 272.518C260.26 272.326 260.437 272.224 260.662 272.224C261.022 272.224 261.181 272.398 261.181 272.698C261.181 273.016 260.983 273.184 260.674 273.184C260.362 273.184 260.116 273.022 260.071 272.638L259.075 272.722C259.156 273.586 259.732 274.054 260.671 274.054C261.586 274.054 262.237 273.508 262.237 272.698C262.237 271.918 261.799 271.399 261.001 271.399ZM264.405 271.399C264.072 271.399 263.832 271.471 263.619 271.66L263.676 270.964H265.398V270.1H262.836L262.692 272.062L263.544 272.518C263.664 272.326 263.841 272.224 264.066 272.224C264.426 272.224 264.585 272.398 264.585 272.698C264.585 273.016 264.387 273.184 264.078 273.184C263.766 273.184 263.52 273.022 263.475 272.638L262.479 272.722C262.56 273.586 263.136 274.054 264.075 274.054C264.99 274.054 265.641 273.508 265.641 272.698C265.641 271.918 265.203 271.399 264.405 271.399ZM266.937 272.008C267.525 272.008 267.909 271.6 267.909 271.03C267.909 270.454 267.525 270.046 266.937 270.046C266.349 270.046 265.959 270.454 265.959 271.03C265.959 271.6 266.349 272.008 266.937 272.008ZM266.343 274H267.207L269.763 270.1H268.899L266.343 274ZM266.937 271.33C266.775 271.33 266.679 271.216 266.679 271.03C266.679 270.838 266.775 270.718 266.937 270.718C267.093 270.718 267.189 270.838 267.189 271.03C267.189 271.216 267.093 271.33 266.937 271.33ZM269.163 274.054C269.751 274.054 270.141 273.646 270.141 273.07C270.141 272.5 269.751 272.092 269.163 272.092C268.575 272.092 268.191 272.5 268.191 273.07C268.191 273.646 268.575 274.054 269.163 274.054ZM269.163 273.382C269.007 273.382 268.911 273.262 268.911 273.07C268.911 272.884 269.007 272.77 269.163 272.77C269.325 272.77 269.415 272.884 269.415 273.07C269.415 273.262 269.325 273.382 269.163 273.382Z" fill="white"/>
<rect x="232.2" y="287.2" width="22.6" height="5.6" rx="2.8" stroke="#5375FF" stroke-width="0.4"/>
<rect x="260.2" y="287.2" width="18.6" height="5.6" rx="2.8" stroke="#5375FF" stroke-width="0.4"/>
<rect x="288.2" y="287.2" width="9.6" height="5.6" rx="2.8" stroke="#5375FF" stroke-width="0.4"/>
<rect x="346" y="215" width="95" height="132" rx="15" fill="#E7E7E7"/>
<g clip-path="url(#clip7)">
<g filter="url(#filter5_d)">
<path d="M424.971 325.714H419.029C416.567 325.714 414.571 327.71 414.571 330.171V336.114C414.571 338.576 416.567 340.571 419.029 340.571H424.971C427.433 340.571 429.429 338.576 429.429 336.114V330.171C429.429 327.71 427.433 325.714 424.971 325.714Z" fill="black"/>
</g>
<path d="M424.971 325.714H419.029C416.567 325.714 414.571 327.71 414.571 330.171V336.114C414.571 338.576 416.567 340.571 419.029 340.571H424.971C427.433 340.571 429.429 338.576 429.429 336.114V330.171C429.429 327.71 427.433 325.714 424.971 325.714Z" fill="#5375FF"/>
<path d="M425.19 329.953C425.061 329.824 424.879 329.772 424.702 329.814L424.699 329.814L418.866 331.242C418.305 331.379 417.914 331.877 417.914 332.454V333.224C417.914 333.504 418.136 333.734 418.414 333.746L420.609 334.119C420.655 334.127 420.702 334.112 420.736 334.079L423.322 331.493C423.412 331.402 423.559 331.402 423.65 331.493C423.741 331.583 423.741 331.73 423.65 331.821L421.064 334.407C421.031 334.44 421.016 334.488 421.023 334.534L421.397 336.728C421.409 337.006 421.638 337.228 421.919 337.228H422.689C423.265 337.228 423.764 336.837 423.901 336.278L425.328 330.443L425.329 330.441C425.37 330.264 425.318 330.082 425.19 329.953Z" fill="#FBFBFB"/>
</g>
<rect x="355" y="301" width="77" height="3" rx="1.5" fill="#B0AFAF"/>
<rect x="372" y="308" width="47" height="3" rx="1.5" fill="#B0AFAF"/>
<circle cx="369" cy="240" r="11" fill="#C4C4C4"/>
<rect x="385" y="233" width="41" height="3" rx="1.5" fill="#B0AFAF"/>
<rect x="385" y="239" width="33" height="1" rx="0.5" fill="#C4C4C4"/>
<rect x="353" y="265" width="82" height="14" rx="2" fill="#E5ECFE"/>
<rect x="353" y="265" width="45" height="14" rx="2" fill="url(#paint2_linear)"/>
<g filter="url(#filter6_d)">
<rect x="356" y="326" width="50" height="14" rx="2" fill="#5375FF"/>
</g>
<path d="M367.857 335.06C368.682 335.06 369.138 334.628 369.141 333.98C369.144 333.227 368.532 333.05 367.878 332.861C367.275 332.684 366.876 332.546 366.876 332.072C366.876 331.664 367.17 331.394 367.74 331.394C368.415 331.394 368.706 331.781 368.748 332.357L369.108 332.279C369.09 331.442 368.562 331.04 367.755 331.04C367.002 331.04 366.459 331.412 366.459 332.099C366.459 332.81 367.026 333.038 367.707 333.221C368.331 333.395 368.73 333.518 368.73 333.998C368.73 334.493 368.385 334.703 367.863 334.703C367.089 334.703 366.702 334.343 366.714 333.665L366.333 333.725C366.315 334.667 367.002 335.06 367.857 335.06ZM371.4 332.063C370.923 332.063 370.566 332.3 370.386 332.669V330.812H369.993V335H370.386V333.491C370.386 332.822 370.794 332.429 371.334 332.429C371.826 332.429 372.063 332.705 372.063 333.317V335H372.456V333.26C372.456 332.474 372.108 332.063 371.4 332.063ZM374.553 335.06C375.42 335.06 375.981 334.415 375.981 333.56C375.981 332.705 375.42 332.063 374.553 332.063C373.686 332.063 373.122 332.705 373.122 333.56C373.122 334.415 373.686 335.06 374.553 335.06ZM374.553 334.709C373.926 334.709 373.521 334.22 373.521 333.56C373.521 332.9 373.926 332.414 374.553 332.414C375.177 332.414 375.582 332.9 375.582 333.56C375.582 334.22 375.177 334.709 374.553 334.709ZM380.071 332.123L379.615 333.8C379.534 334.1 379.465 334.388 379.39 334.697C379.312 334.376 379.234 334.085 379.15 333.797L378.652 332.126H378.205L377.704 333.797C377.62 334.085 377.542 334.376 377.464 334.697C377.389 334.388 377.32 334.1 377.242 333.8L376.786 332.123H376.378L377.203 335H377.701L378.25 333.185C378.316 332.966 378.367 332.75 378.427 332.522C378.487 332.75 378.541 332.966 378.607 333.185L379.153 335H379.651L380.476 332.123H380.071ZM385.556 332.063C385.058 332.063 384.734 332.303 384.578 332.681C384.464 332.276 384.191 332.063 383.717 332.063C383.234 332.063 382.928 332.285 382.772 332.639L382.778 332.123H382.403V335H382.793V333.482C382.793 332.81 383.105 332.42 383.648 332.42C384.107 332.42 384.257 332.699 384.257 333.302V335H384.644V333.482C384.644 332.81 384.953 332.42 385.496 332.42C385.958 332.42 386.108 332.708 386.108 333.302V335H386.495V333.26C386.495 332.492 386.225 332.063 385.556 332.063ZM388.598 335.06C389.465 335.06 390.026 334.415 390.026 333.56C390.026 332.705 389.465 332.063 388.598 332.063C387.731 332.063 387.167 332.705 387.167 333.56C387.167 334.415 387.731 335.06 388.598 335.06ZM388.598 334.709C387.971 334.709 387.566 334.22 387.566 333.56C387.566 332.9 387.971 332.414 388.598 332.414C389.222 332.414 389.627 332.9 389.627 333.56C389.627 334.22 389.222 334.709 388.598 334.709ZM391.116 332.711L391.122 332.123H390.747V335H391.134V333.476C391.134 332.726 391.707 332.354 392.268 332.501L392.295 332.09C391.764 331.973 391.311 332.207 391.116 332.711ZM395.214 333.503C395.214 332.642 394.743 332.063 393.933 332.063C393.12 332.063 392.598 332.72 392.598 333.554C392.598 334.406 393.141 335.06 393.978 335.06C394.56 335.06 394.992 334.79 395.16 334.277L394.851 334.169C394.713 334.511 394.443 334.718 393.978 334.718C393.402 334.718 393.039 334.289 392.994 333.674H395.211C395.214 333.614 395.214 333.557 395.214 333.503ZM393.933 332.399C394.467 332.399 394.779 332.75 394.821 333.35H393.003C393.063 332.789 393.396 332.399 393.933 332.399Z" fill="white"/>
<path d="M362.804 270.1L361.745 272.791C361.643 273.055 361.574 273.253 361.496 273.481C361.418 273.25 361.331 273.007 361.247 272.791L360.188 270.1H359.567V274H359.96V271.294C359.96 271.03 359.957 270.793 359.954 270.535C360.041 270.796 360.131 271.042 360.239 271.312L361.316 274H361.676L362.753 271.312C362.858 271.045 362.948 270.802 363.038 270.529C363.035 270.802 363.032 271.036 363.032 271.294V274H363.425V270.1H362.804ZM366.911 273.697C366.698 273.697 366.668 273.541 366.668 273.388V272.236C366.668 271.684 366.482 271.063 365.534 271.063C364.925 271.063 364.532 271.333 364.37 271.876L364.724 271.993C364.85 271.6 365.072 271.402 365.537 271.402C366.113 271.402 366.281 271.762 366.281 272.233V272.443C366.062 272.416 365.843 272.401 365.642 272.401C364.88 272.401 364.295 272.599 364.295 273.223C364.295 273.751 364.7 274.06 365.282 274.06C365.756 274.06 366.122 273.847 366.311 273.541C366.335 273.856 366.47 274.03 366.83 274.03C366.914 274.03 366.992 274.021 367.079 274.003V273.682C367.019 273.694 366.968 273.697 366.911 273.697ZM365.33 273.718C364.985 273.718 364.718 273.565 364.718 273.214C364.718 272.836 365.081 272.713 365.654 272.713C365.852 272.713 366.062 272.725 366.281 272.749V273.226C366.089 273.532 365.741 273.718 365.33 273.718ZM369.262 273.571C369.142 273.652 369.019 273.691 368.857 273.691C368.5 273.691 368.338 273.496 368.338 273.064V271.456H369.328V271.123H368.338V270.187L367.948 270.241V271.123H367.327V271.456H367.948V273.109C367.948 273.763 368.284 274.045 368.812 274.045C369.043 274.045 369.226 273.988 369.394 273.88L369.262 273.571ZM371.164 274.06C371.794 274.06 372.268 273.757 372.412 273.112L372.064 273.04C371.941 273.463 371.662 273.712 371.167 273.712C370.525 273.712 370.171 273.214 370.171 272.56C370.171 271.909 370.525 271.411 371.167 271.411C371.662 271.411 371.941 271.66 372.064 272.083L372.412 272.011C372.268 271.366 371.794 271.063 371.164 271.063C370.303 271.063 369.772 271.714 369.772 272.56C369.772 273.406 370.303 274.06 371.164 274.06ZM374.583 271.063C374.106 271.063 373.749 271.3 373.569 271.669V269.812H373.176V274H373.569V272.491C373.569 271.822 373.977 271.429 374.517 271.429C375.009 271.429 375.246 271.705 375.246 272.317V274H375.639V272.26C375.639 271.474 375.291 271.063 374.583 271.063Z" fill="white"/>
<path d="M383.567 272.485H383.036V270.07H381.389L380.078 272.557L380.204 273.31L382.013 273.301V274H383.036V273.298L383.567 273.295V272.485ZM381.215 272.485L381.473 271.972C381.674 271.576 381.869 271.18 382.04 270.742C382.019 271.111 382.013 271.471 382.013 271.843V272.485H381.215ZM385.513 274.054C386.635 274.054 387.175 273.349 387.175 272.05C387.175 270.748 386.605 270.046 385.513 270.046C384.421 270.046 383.851 270.748 383.851 272.05C383.851 273.349 384.391 274.054 385.513 274.054ZM385.513 273.208C385.075 273.208 384.874 272.767 384.874 272.05C384.874 271.333 385.075 270.892 385.513 270.892C385.951 270.892 386.152 271.333 386.152 272.05C386.152 272.767 385.951 273.208 385.513 273.208ZM388.47 272.008C389.058 272.008 389.442 271.6 389.442 271.03C389.442 270.454 389.058 270.046 388.47 270.046C387.882 270.046 387.492 270.454 387.492 271.03C387.492 271.6 387.882 272.008 388.47 272.008ZM387.876 274H388.74L391.296 270.1H390.432L387.876 274ZM388.47 271.33C388.308 271.33 388.212 271.216 388.212 271.03C388.212 270.838 388.308 270.718 388.47 270.718C388.626 270.718 388.722 270.838 388.722 271.03C388.722 271.216 388.626 271.33 388.47 271.33ZM390.696 274.054C391.284 274.054 391.674 273.646 391.674 273.07C391.674 272.5 391.284 272.092 390.696 272.092C390.108 272.092 389.724 272.5 389.724 273.07C389.724 273.646 390.108 274.054 390.696 274.054ZM390.696 273.382C390.54 273.382 390.444 273.262 390.444 273.07C390.444 272.884 390.54 272.77 390.696 272.77C390.858 272.77 390.948 272.884 390.948 273.07C390.948 273.262 390.858 273.382 390.696 273.382Z" fill="white"/>
<rect x="353.2" y="287.2" width="22.6" height="5.6" rx="2.8" stroke="#5375FF" stroke-width="0.4"/>
<rect x="381.2" y="287.2" width="18.6" height="5.6" rx="2.8" stroke="#5375FF" stroke-width="0.4"/>
<rect x="409.2" y="287.2" width="9.6" height="5.6" rx="2.8" stroke="#5375FF" stroke-width="0.4"/>
<rect x="225" y="368" width="95" height="132" rx="15" fill="#E7E7E7"/>
<g clip-path="url(#clip8)">
<g filter="url(#filter7_d)">
<path d="M303.971 478.714H298.029C295.567 478.714 293.571 480.71 293.571 483.171V489.114C293.571 491.576 295.567 493.571 298.029 493.571H303.971C306.433 493.571 308.429 491.576 308.429 489.114V483.171C308.429 480.71 306.433 478.714 303.971 478.714Z" fill="black"/>
</g>
<path d="M303.971 478.714H298.029C295.567 478.714 293.571 480.71 293.571 483.171V489.114C293.571 491.576 295.567 493.571 298.029 493.571H303.971C306.433 493.571 308.429 491.576 308.429 489.114V483.171C308.429 480.71 306.433 478.714 303.971 478.714Z" fill="#5375FF"/>
<path d="M304.19 482.953C304.061 482.824 303.879 482.772 303.702 482.814L303.699 482.814L297.866 484.242C297.305 484.379 296.914 484.877 296.914 485.454V486.224C296.914 486.504 297.136 486.734 297.414 486.746L299.609 487.119C299.655 487.127 299.702 487.112 299.736 487.079L302.322 484.493C302.412 484.402 302.559 484.402 302.65 484.493C302.741 484.583 302.741 484.731 302.65 484.821L300.064 487.407C300.031 487.44 300.016 487.488 300.023 487.534L300.397 489.728C300.409 490.006 300.638 490.228 300.919 490.228H301.689C302.265 490.228 302.764 489.837 302.901 489.278L304.328 483.444L304.329 483.441C304.37 483.264 304.318 483.082 304.19 482.953Z" fill="#FBFBFB"/>
</g>
<rect x="234" y="454" width="77" height="3" rx="1.5" fill="#B0AFAF"/>
<rect x="251" y="461" width="47" height="3" rx="1.5" fill="#B0AFAF"/>
<circle cx="248" cy="393" r="11" fill="#C4C4C4"/>
<rect x="264" y="386" width="41" height="3" rx="1.5" fill="#B0AFAF"/>
<rect x="264" y="392" width="33" height="1" rx="0.5" fill="#C4C4C4"/>
<rect x="232" y="418" width="82" height="14" rx="2" fill="#E5ECFE"/>
<rect x="232" y="418" width="53" height="14" rx="2" fill="url(#paint3_linear)"/>
<g filter="url(#filter8_d)">
<rect x="235" y="479" width="50" height="14" rx="2" fill="#5375FF"/>
</g>
<path d="M246.857 488.06C247.682 488.06 248.138 487.628 248.141 486.98C248.144 486.227 247.532 486.05 246.878 485.861C246.275 485.684 245.876 485.546 245.876 485.072C245.876 484.664 246.17 484.394 246.74 484.394C247.415 484.394 247.706 484.781 247.748 485.357L248.108 485.279C248.09 484.442 247.562 484.04 246.755 484.04C246.002 484.04 245.459 484.412 245.459 485.099C245.459 485.81 246.026 486.038 246.707 486.221C247.331 486.395 247.73 486.518 247.73 486.998C247.73 487.493 247.385 487.703 246.863 487.703C246.089 487.703 245.702 487.343 245.714 486.665L245.333 486.725C245.315 487.667 246.002 488.06 246.857 488.06ZM250.4 485.063C249.923 485.063 249.566 485.3 249.386 485.669V483.812H248.993V488H249.386V486.491C249.386 485.822 249.794 485.429 250.334 485.429C250.826 485.429 251.063 485.705 251.063 486.317V488H251.456V486.26C251.456 485.474 251.108 485.063 250.4 485.063ZM253.553 488.06C254.42 488.06 254.981 487.415 254.981 486.56C254.981 485.705 254.42 485.063 253.553 485.063C252.686 485.063 252.122 485.705 252.122 486.56C252.122 487.415 252.686 488.06 253.553 488.06ZM253.553 487.709C252.926 487.709 252.521 487.22 252.521 486.56C252.521 485.9 252.926 485.414 253.553 485.414C254.177 485.414 254.582 485.9 254.582 486.56C254.582 487.22 254.177 487.709 253.553 487.709ZM259.071 485.123L258.615 486.8C258.534 487.1 258.465 487.388 258.39 487.697C258.312 487.376 258.234 487.085 258.15 486.797L257.652 485.126H257.205L256.704 486.797C256.62 487.085 256.542 487.376 256.464 487.697C256.389 487.388 256.32 487.1 256.242 486.8L255.786 485.123H255.378L256.203 488H256.701L257.25 486.185C257.316 485.966 257.367 485.75 257.427 485.522C257.487 485.75 257.541 485.966 257.607 486.185L258.153 488H258.651L259.476 485.123H259.071ZM264.556 485.063C264.058 485.063 263.734 485.303 263.578 485.681C263.464 485.276 263.191 485.063 262.717 485.063C262.234 485.063 261.928 485.285 261.772 485.639L261.778 485.123H261.403V488H261.793V486.482C261.793 485.81 262.105 485.42 262.648 485.42C263.107 485.42 263.257 485.699 263.257 486.302V488H263.644V486.482C263.644 485.81 263.953 485.42 264.496 485.42C264.958 485.42 265.108 485.708 265.108 486.302V488H265.495V486.26C265.495 485.492 265.225 485.063 264.556 485.063ZM267.598 488.06C268.465 488.06 269.026 487.415 269.026 486.56C269.026 485.705 268.465 485.063 267.598 485.063C266.731 485.063 266.167 485.705 266.167 486.56C266.167 487.415 266.731 488.06 267.598 488.06ZM267.598 487.709C266.971 487.709 266.566 487.22 266.566 486.56C266.566 485.9 266.971 485.414 267.598 485.414C268.222 485.414 268.627 485.9 268.627 486.56C268.627 487.22 268.222 487.709 267.598 487.709ZM270.116 485.711L270.122 485.123H269.747V488H270.134V486.476C270.134 485.726 270.707 485.354 271.268 485.501L271.295 485.09C270.764 484.973 270.311 485.207 270.116 485.711ZM274.214 486.503C274.214 485.642 273.743 485.063 272.933 485.063C272.12 485.063 271.598 485.72 271.598 486.554C271.598 487.406 272.141 488.06 272.978 488.06C273.56 488.06 273.992 487.79 274.16 487.277L273.851 487.169C273.713 487.511 273.443 487.718 272.978 487.718C272.402 487.718 272.039 487.289 271.994 486.674H274.211C274.214 486.614 274.214 486.557 274.214 486.503ZM272.933 485.399C273.467 485.399 273.779 485.75 273.821 486.35H272.003C272.063 485.789 272.396 485.399 272.933 485.399Z" fill="white"/>
<path d="M241.804 423.1L240.745 425.791C240.643 426.055 240.574 426.253 240.496 426.481C240.418 426.25 240.331 426.007 240.247 425.791L239.188 423.1H238.567V427H238.96V424.294C238.96 424.03 238.957 423.793 238.954 423.535C239.041 423.796 239.131 424.042 239.239 424.312L240.316 427H240.676L241.753 424.312C241.858 424.045 241.948 423.802 242.038 423.529C242.035 423.802 242.032 424.036 242.032 424.294V427H242.425V423.1H241.804ZM245.911 426.697C245.698 426.697 245.668 426.541 245.668 426.388V425.236C245.668 424.684 245.482 424.063 244.534 424.063C243.925 424.063 243.532 424.333 243.37 424.876L243.724 424.993C243.85 424.6 244.072 424.402 244.537 424.402C245.113 424.402 245.281 424.762 245.281 425.233V425.443C245.062 425.416 244.843 425.401 244.642 425.401C243.88 425.401 243.295 425.599 243.295 426.223C243.295 426.751 243.7 427.06 244.282 427.06C244.756 427.06 245.122 426.847 245.311 426.541C245.335 426.856 245.47 427.03 245.83 427.03C245.914 427.03 245.992 427.021 246.079 427.003V426.682C246.019 426.694 245.968 426.697 245.911 426.697ZM244.33 426.718C243.985 426.718 243.718 426.565 243.718 426.214C243.718 425.836 244.081 425.713 244.654 425.713C244.852 425.713 245.062 425.725 245.281 425.749V426.226C245.089 426.532 244.741 426.718 244.33 426.718ZM248.262 426.571C248.142 426.652 248.019 426.691 247.857 426.691C247.5 426.691 247.338 426.496 247.338 426.064V424.456H248.328V424.123H247.338V423.187L246.948 423.241V424.123H246.327V424.456H246.948V426.109C246.948 426.763 247.284 427.045 247.812 427.045C248.043 427.045 248.226 426.988 248.394 426.88L248.262 426.571ZM250.164 427.06C250.794 427.06 251.268 426.757 251.412 426.112L251.064 426.04C250.941 426.463 250.662 426.712 250.167 426.712C249.525 426.712 249.171 426.214 249.171 425.56C249.171 424.909 249.525 424.411 250.167 424.411C250.662 424.411 250.941 424.66 251.064 425.083L251.412 425.011C251.268 424.366 250.794 424.063 250.164 424.063C249.303 424.063 248.772 424.714 248.772 425.56C248.772 426.406 249.303 427.06 250.164 427.06ZM253.583 424.063C253.106 424.063 252.749 424.3 252.569 424.669V422.812H252.176V427H252.569V425.491C252.569 424.822 252.977 424.429 253.517 424.429C254.009 424.429 254.246 424.705 254.246 425.317V427H254.639V425.26C254.639 424.474 254.291 424.063 253.583 424.063Z" fill="white"/>
<path d="M261.052 424.42C260.62 424.42 260.29 424.594 260.116 424.939C260.149 424.27 260.488 423.946 261.046 423.946C261.361 423.946 261.622 424.018 261.865 424.168L262.177 423.34C261.859 423.148 261.46 423.046 261.031 423.046C259.771 423.046 259.165 423.907 259.165 425.185C259.165 426.382 259.72 427.054 260.743 427.054C261.688 427.054 262.279 426.472 262.279 425.671C262.279 424.963 261.814 424.42 261.052 424.42ZM260.728 426.196C260.302 426.196 260.161 425.905 260.167 425.533C260.299 425.35 260.518 425.26 260.752 425.26C261.061 425.26 261.277 425.419 261.277 425.719C261.277 426.019 261.058 426.196 260.728 426.196ZM264.243 427.054C265.365 427.054 265.905 426.349 265.905 425.05C265.905 423.748 265.335 423.046 264.243 423.046C263.151 423.046 262.581 423.748 262.581 425.05C262.581 426.349 263.121 427.054 264.243 427.054ZM264.243 426.208C263.805 426.208 263.604 425.767 263.604 425.05C263.604 424.333 263.805 423.892 264.243 423.892C264.681 423.892 264.882 424.333 264.882 425.05C264.882 425.767 264.681 426.208 264.243 426.208ZM267.2 425.008C267.788 425.008 268.172 424.6 268.172 424.03C268.172 423.454 267.788 423.046 267.2 423.046C266.612 423.046 266.222 423.454 266.222 424.03C266.222 424.6 266.612 425.008 267.2 425.008ZM266.606 427H267.47L270.026 423.1H269.162L266.606 427ZM267.2 424.33C267.038 424.33 266.942 424.216 266.942 424.03C266.942 423.838 267.038 423.718 267.2 423.718C267.356 423.718 267.452 423.838 267.452 424.03C267.452 424.216 267.356 424.33 267.2 424.33ZM269.426 427.054C270.014 427.054 270.404 426.646 270.404 426.07C270.404 425.5 270.014 425.092 269.426 425.092C268.838 425.092 268.454 425.5 268.454 426.07C268.454 426.646 268.838 427.054 269.426 427.054ZM269.426 426.382C269.27 426.382 269.174 426.262 269.174 426.07C269.174 425.884 269.27 425.77 269.426 425.77C269.588 425.77 269.678 425.884 269.678 426.07C269.678 426.262 269.588 426.382 269.426 426.382Z" fill="white"/>
<rect x="232.2" y="440.2" width="22.6" height="5.6" rx="2.8" stroke="#5375FF" stroke-width="0.4"/>
<rect x="260.2" y="440.2" width="18.6" height="5.6" rx="2.8" stroke="#5375FF" stroke-width="0.4"/>
<rect x="288.2" y="440.2" width="9.6" height="5.6" rx="2.8" stroke="#5375FF" stroke-width="0.4"/>
<rect x="346" y="368" width="95" height="132" rx="15" fill="#E7E7E7"/>
<g clip-path="url(#clip9)">
<g filter="url(#filter9_d)">
<path d="M424.971 478.714H419.029C416.567 478.714 414.571 480.71 414.571 483.171V489.114C414.571 491.576 416.567 493.571 419.029 493.571H424.971C427.433 493.571 429.429 491.576 429.429 489.114V483.171C429.429 480.71 427.433 478.714 424.971 478.714Z" fill="black"/>
</g>
<path d="M424.971 478.714H419.029C416.567 478.714 414.571 480.71 414.571 483.171V489.114C414.571 491.576 416.567 493.571 419.029 493.571H424.971C427.433 493.571 429.429 491.576 429.429 489.114V483.171C429.429 480.71 427.433 478.714 424.971 478.714Z" fill="#5375FF"/>
<path d="M425.19 482.953C425.061 482.824 424.879 482.772 424.702 482.814L424.699 482.814L418.866 484.242C418.305 484.379 417.914 484.877 417.914 485.454V486.224C417.914 486.504 418.136 486.734 418.414 486.746L420.609 487.119C420.655 487.127 420.702 487.112 420.736 487.079L423.322 484.493C423.412 484.402 423.559 484.402 423.65 484.493C423.741 484.583 423.741 484.731 423.65 484.821L421.064 487.407C421.031 487.44 421.016 487.488 421.023 487.534L421.397 489.728C421.409 490.006 421.638 490.228 421.919 490.228H422.689C423.265 490.228 423.764 489.837 423.901 489.278L425.328 483.444L425.329 483.441C425.37 483.264 425.318 483.082 425.19 482.953Z" fill="#FBFBFB"/>
</g>
<rect x="355" y="454" width="77" height="3" rx="1.5" fill="#B0AFAF"/>
<rect x="372" y="461" width="47" height="3" rx="1.5" fill="#B0AFAF"/>
<circle cx="369" cy="393" r="11" fill="#C4C4C4"/>
<rect x="385" y="386" width="41" height="3" rx="1.5" fill="#B0AFAF"/>
<rect x="385" y="392" width="33" height="1" rx="0.5" fill="#C4C4C4"/>
<rect x="353" y="418" width="82" height="14" rx="2" fill="#E5ECFE"/>
<rect x="353" y="418" width="73" height="14" rx="2" fill="url(#paint4_linear)"/>
<g filter="url(#filter10_d)">
<rect x="356" y="479" width="50" height="14" rx="2" fill="#5375FF"/>
</g>
<path d="M367.857 488.06C368.682 488.06 369.138 487.628 369.141 486.98C369.144 486.227 368.532 486.05 367.878 485.861C367.275 485.684 366.876 485.546 366.876 485.072C366.876 484.664 367.17 484.394 367.74 484.394C368.415 484.394 368.706 484.781 368.748 485.357L369.108 485.279C369.09 484.442 368.562 484.04 367.755 484.04C367.002 484.04 366.459 484.412 366.459 485.099C366.459 485.81 367.026 486.038 367.707 486.221C368.331 486.395 368.73 486.518 368.73 486.998C368.73 487.493 368.385 487.703 367.863 487.703C367.089 487.703 366.702 487.343 366.714 486.665L366.333 486.725C366.315 487.667 367.002 488.06 367.857 488.06ZM371.4 485.063C370.923 485.063 370.566 485.3 370.386 485.669V483.812H369.993V488H370.386V486.491C370.386 485.822 370.794 485.429 371.334 485.429C371.826 485.429 372.063 485.705 372.063 486.317V488H372.456V486.26C372.456 485.474 372.108 485.063 371.4 485.063ZM374.553 488.06C375.42 488.06 375.981 487.415 375.981 486.56C375.981 485.705 375.42 485.063 374.553 485.063C373.686 485.063 373.122 485.705 373.122 486.56C373.122 487.415 373.686 488.06 374.553 488.06ZM374.553 487.709C373.926 487.709 373.521 487.22 373.521 486.56C373.521 485.9 373.926 485.414 374.553 485.414C375.177 485.414 375.582 485.9 375.582 486.56C375.582 487.22 375.177 487.709 374.553 487.709ZM380.071 485.123L379.615 486.8C379.534 487.1 379.465 487.388 379.39 487.697C379.312 487.376 379.234 487.085 379.15 486.797L378.652 485.126H378.205L377.704 486.797C377.62 487.085 377.542 487.376 377.464 487.697C377.389 487.388 377.32 487.1 377.242 486.8L376.786 485.123H376.378L377.203 488H377.701L378.25 486.185C378.316 485.966 378.367 485.75 378.427 485.522C378.487 485.75 378.541 485.966 378.607 486.185L379.153 488H379.651L380.476 485.123H380.071ZM385.556 485.063C385.058 485.063 384.734 485.303 384.578 485.681C384.464 485.276 384.191 485.063 383.717 485.063C383.234 485.063 382.928 485.285 382.772 485.639L382.778 485.123H382.403V488H382.793V486.482C382.793 485.81 383.105 485.42 383.648 485.42C384.107 485.42 384.257 485.699 384.257 486.302V488H384.644V486.482C384.644 485.81 384.953 485.42 385.496 485.42C385.958 485.42 386.108 485.708 386.108 486.302V488H386.495V486.26C386.495 485.492 386.225 485.063 385.556 485.063ZM388.598 488.06C389.465 488.06 390.026 487.415 390.026 486.56C390.026 485.705 389.465 485.063 388.598 485.063C387.731 485.063 387.167 485.705 387.167 486.56C387.167 487.415 387.731 488.06 388.598 488.06ZM388.598 487.709C387.971 487.709 387.566 487.22 387.566 486.56C387.566 485.9 387.971 485.414 388.598 485.414C389.222 485.414 389.627 485.9 389.627 486.56C389.627 487.22 389.222 487.709 388.598 487.709ZM391.116 485.711L391.122 485.123H390.747V488H391.134V486.476C391.134 485.726 391.707 485.354 392.268 485.501L392.295 485.09C391.764 484.973 391.311 485.207 391.116 485.711ZM395.214 486.503C395.214 485.642 394.743 485.063 393.933 485.063C393.12 485.063 392.598 485.72 392.598 486.554C392.598 487.406 393.141 488.06 393.978 488.06C394.56 488.06 394.992 487.79 395.16 487.277L394.851 487.169C394.713 487.511 394.443 487.718 393.978 487.718C393.402 487.718 393.039 487.289 392.994 486.674H395.211C395.214 486.614 395.214 486.557 395.214 486.503ZM393.933 485.399C394.467 485.399 394.779 485.75 394.821 486.35H393.003C393.063 485.789 393.396 485.399 393.933 485.399Z" fill="white"/>
<path d="M362.804 423.1L361.745 425.791C361.643 426.055 361.574 426.253 361.496 426.481C361.418 426.25 361.331 426.007 361.247 425.791L360.188 423.1H359.567V427H359.96V424.294C359.96 424.03 359.957 423.793 359.954 423.535C360.041 423.796 360.131 424.042 360.239 424.312L361.316 427H361.676L362.753 424.312C362.858 424.045 362.948 423.802 363.038 423.529C363.035 423.802 363.032 424.036 363.032 424.294V427H363.425V423.1H362.804ZM366.911 426.697C366.698 426.697 366.668 426.541 366.668 426.388V425.236C366.668 424.684 366.482 424.063 365.534 424.063C364.925 424.063 364.532 424.333 364.37 424.876L364.724 424.993C364.85 424.6 365.072 424.402 365.537 424.402C366.113 424.402 366.281 424.762 366.281 425.233V425.443C366.062 425.416 365.843 425.401 365.642 425.401C364.88 425.401 364.295 425.599 364.295 426.223C364.295 426.751 364.7 427.06 365.282 427.06C365.756 427.06 366.122 426.847 366.311 426.541C366.335 426.856 366.47 427.03 366.83 427.03C366.914 427.03 366.992 427.021 367.079 427.003V426.682C367.019 426.694 366.968 426.697 366.911 426.697ZM365.33 426.718C364.985 426.718 364.718 426.565 364.718 426.214C364.718 425.836 365.081 425.713 365.654 425.713C365.852 425.713 366.062 425.725 366.281 425.749V426.226C366.089 426.532 365.741 426.718 365.33 426.718ZM369.262 426.571C369.142 426.652 369.019 426.691 368.857 426.691C368.5 426.691 368.338 426.496 368.338 426.064V424.456H369.328V424.123H368.338V423.187L367.948 423.241V424.123H367.327V424.456H367.948V426.109C367.948 426.763 368.284 427.045 368.812 427.045C369.043 427.045 369.226 426.988 369.394 426.88L369.262 426.571ZM371.164 427.06C371.794 427.06 372.268 426.757 372.412 426.112L372.064 426.04C371.941 426.463 371.662 426.712 371.167 426.712C370.525 426.712 370.171 426.214 370.171 425.56C370.171 424.909 370.525 424.411 371.167 424.411C371.662 424.411 371.941 424.66 372.064 425.083L372.412 425.011C372.268 424.366 371.794 424.063 371.164 424.063C370.303 424.063 369.772 424.714 369.772 425.56C369.772 426.406 370.303 427.06 371.164 427.06ZM374.583 424.063C374.106 424.063 373.749 424.3 373.569 424.669V422.812H373.176V427H373.569V425.491C373.569 424.822 373.977 424.429 374.517 424.429C375.009 424.429 375.246 424.705 375.246 425.317V427H375.639V425.26C375.639 424.474 375.291 424.063 374.583 424.063Z" fill="white"/>
<path d="M381.671 423.046C380.726 423.046 380.135 423.628 380.135 424.429C380.135 425.137 380.6 425.68 381.362 425.68C381.794 425.68 382.124 425.506 382.298 425.161C382.265 425.83 381.926 426.154 381.368 426.154C381.053 426.154 380.792 426.082 380.549 425.932L380.237 426.76C380.555 426.952 380.954 427.054 381.383 427.054C382.643 427.054 383.249 426.193 383.249 424.915C383.249 423.718 382.694 423.046 381.671 423.046ZM381.662 424.84C381.353 424.84 381.137 424.681 381.137 424.381C381.137 424.081 381.356 423.904 381.686 423.904C382.112 423.904 382.253 424.195 382.247 424.567C382.115 424.75 381.896 424.84 381.662 424.84ZM385.243 427.054C386.365 427.054 386.905 426.349 386.905 425.05C386.905 423.748 386.335 423.046 385.243 423.046C384.151 423.046 383.581 423.748 383.581 425.05C383.581 426.349 384.121 427.054 385.243 427.054ZM385.243 426.208C384.805 426.208 384.604 425.767 384.604 425.05C384.604 424.333 384.805 423.892 385.243 423.892C385.681 423.892 385.882 424.333 385.882 425.05C385.882 425.767 385.681 426.208 385.243 426.208ZM388.2 425.008C388.788 425.008 389.172 424.6 389.172 424.03C389.172 423.454 388.788 423.046 388.2 423.046C387.612 423.046 387.222 423.454 387.222 424.03C387.222 424.6 387.612 425.008 388.2 425.008ZM387.606 427H388.47L391.026 423.1H390.162L387.606 427ZM388.2 424.33C388.038 424.33 387.942 424.216 387.942 424.03C387.942 423.838 388.038 423.718 388.2 423.718C388.356 423.718 388.452 423.838 388.452 424.03C388.452 424.216 388.356 424.33 388.2 424.33ZM390.426 427.054C391.014 427.054 391.404 426.646 391.404 426.07C391.404 425.5 391.014 425.092 390.426 425.092C389.838 425.092 389.454 425.5 389.454 426.07C389.454 426.646 389.838 427.054 390.426 427.054ZM390.426 426.382C390.27 426.382 390.174 426.262 390.174 426.07C390.174 425.884 390.27 425.77 390.426 425.77C390.588 425.77 390.678 425.884 390.678 426.07C390.678 426.262 390.588 426.382 390.426 426.382Z" fill="white"/>
<rect x="353.2" y="440.2" width="22.6" height="5.6" rx="2.8" stroke="#5375FF" stroke-width="0.4"/>
<rect x="381.2" y="440.2" width="18.6" height="5.6" rx="2.8" stroke="#5375FF" stroke-width="0.4"/>
<rect x="409.2" y="440.2" width="9.6" height="5.6" rx="2.8" stroke="#5375FF" stroke-width="0.4"/>
<rect x="104" y="215" width="95" height="132" rx="15" fill="#E7E7E7"/>
<g clip-path="url(#clip10)">
<g filter="url(#filter11_d)">
<path d="M182.971 325.714H177.029C174.567 325.714 172.571 327.71 172.571 330.171V336.114C172.571 338.576 174.567 340.571 177.029 340.571H182.971C185.433 340.571 187.429 338.576 187.429 336.114V330.171C187.429 327.71 185.433 325.714 182.971 325.714Z" fill="black"/>
</g>
<path d="M182.971 325.714H177.029C174.567 325.714 172.571 327.71 172.571 330.171V336.114C172.571 338.576 174.567 340.571 177.029 340.571H182.971C185.433 340.571 187.429 338.576 187.429 336.114V330.171C187.429 327.71 185.433 325.714 182.971 325.714Z" fill="#5375FF"/>
<path d="M183.19 329.953C183.061 329.824 182.879 329.772 182.702 329.814L182.699 329.814L176.866 331.242C176.305 331.379 175.914 331.877 175.914 332.454V333.224C175.914 333.504 176.136 333.734 176.414 333.746L178.609 334.119C178.655 334.127 178.702 334.112 178.736 334.079L181.322 331.493C181.412 331.402 181.559 331.402 181.65 331.493C181.741 331.583 181.741 331.73 181.65 331.821L179.064 334.407C179.031 334.44 179.016 334.488 179.023 334.534L179.397 336.728C179.409 337.006 179.638 337.228 179.919 337.228H180.689C181.265 337.228 181.764 336.837 181.901 336.278L183.328 330.443L183.329 330.441C183.37 330.264 183.318 330.082 183.19 329.953Z" fill="#FBFBFB"/>
</g>
<rect x="113" y="301" width="77" height="3" rx="1.5" fill="#B0AFAF"/>
<rect x="130" y="308" width="47" height="3" rx="1.5" fill="#B0AFAF"/>
<circle cx="127" cy="240" r="11" fill="#C4C4C4"/>
<rect x="143" y="233" width="41" height="3" rx="1.5" fill="#B0AFAF"/>
<rect x="143" y="239" width="33" height="1" rx="0.5" fill="#C4C4C4"/>
<rect x="111" y="265" width="82" height="14" rx="2" fill="#E5ECFE"/>
<rect x="111" y="265" width="71" height="14" rx="2" fill="url(#paint5_linear)"/>
<g filter="url(#filter12_d)">
<rect x="114" y="326" width="50" height="14" rx="2" fill="#5375FF"/>
</g>
<path d="M125.857 335.06C126.682 335.06 127.138 334.628 127.141 333.98C127.144 333.227 126.532 333.05 125.878 332.861C125.275 332.684 124.876 332.546 124.876 332.072C124.876 331.664 125.17 331.394 125.74 331.394C126.415 331.394 126.706 331.781 126.748 332.357L127.108 332.279C127.09 331.442 126.562 331.04 125.755 331.04C125.002 331.04 124.459 331.412 124.459 332.099C124.459 332.81 125.026 333.038 125.707 333.221C126.331 333.395 126.73 333.518 126.73 333.998C126.73 334.493 126.385 334.703 125.863 334.703C125.089 334.703 124.702 334.343 124.714 333.665L124.333 333.725C124.315 334.667 125.002 335.06 125.857 335.06ZM129.4 332.063C128.923 332.063 128.566 332.3 128.386 332.669V330.812H127.993V335H128.386V333.491C128.386 332.822 128.794 332.429 129.334 332.429C129.826 332.429 130.063 332.705 130.063 333.317V335H130.456V333.26C130.456 332.474 130.108 332.063 129.4 332.063ZM132.553 335.06C133.42 335.06 133.981 334.415 133.981 333.56C133.981 332.705 133.42 332.063 132.553 332.063C131.686 332.063 131.122 332.705 131.122 333.56C131.122 334.415 131.686 335.06 132.553 335.06ZM132.553 334.709C131.926 334.709 131.521 334.22 131.521 333.56C131.521 332.9 131.926 332.414 132.553 332.414C133.177 332.414 133.582 332.9 133.582 333.56C133.582 334.22 133.177 334.709 132.553 334.709ZM138.071 332.123L137.615 333.8C137.534 334.1 137.465 334.388 137.39 334.697C137.312 334.376 137.234 334.085 137.15 333.797L136.652 332.126H136.205L135.704 333.797C135.62 334.085 135.542 334.376 135.464 334.697C135.389 334.388 135.32 334.1 135.242 333.8L134.786 332.123H134.378L135.203 335H135.701L136.25 333.185C136.316 332.966 136.367 332.75 136.427 332.522C136.487 332.75 136.541 332.966 136.607 333.185L137.153 335H137.651L138.476 332.123H138.071ZM143.556 332.063C143.058 332.063 142.734 332.303 142.578 332.681C142.464 332.276 142.191 332.063 141.717 332.063C141.234 332.063 140.928 332.285 140.772 332.639L140.778 332.123H140.403V335H140.793V333.482C140.793 332.81 141.105 332.42 141.648 332.42C142.107 332.42 142.257 332.699 142.257 333.302V335H142.644V333.482C142.644 332.81 142.953 332.42 143.496 332.42C143.958 332.42 144.108 332.708 144.108 333.302V335H144.495V333.26C144.495 332.492 144.225 332.063 143.556 332.063ZM146.598 335.06C147.465 335.06 148.026 334.415 148.026 333.56C148.026 332.705 147.465 332.063 146.598 332.063C145.731 332.063 145.167 332.705 145.167 333.56C145.167 334.415 145.731 335.06 146.598 335.06ZM146.598 334.709C145.971 334.709 145.566 334.22 145.566 333.56C145.566 332.9 145.971 332.414 146.598 332.414C147.222 332.414 147.627 332.9 147.627 333.56C147.627 334.22 147.222 334.709 146.598 334.709ZM149.116 332.711L149.122 332.123H148.747V335H149.134V333.476C149.134 332.726 149.707 332.354 150.268 332.501L150.295 332.09C149.764 331.973 149.311 332.207 149.116 332.711ZM153.214 333.503C153.214 332.642 152.743 332.063 151.933 332.063C151.12 332.063 150.598 332.72 150.598 333.554C150.598 334.406 151.141 335.06 151.978 335.06C152.56 335.06 152.992 334.79 153.16 334.277L152.851 334.169C152.713 334.511 152.443 334.718 151.978 334.718C151.402 334.718 151.039 334.289 150.994 333.674H153.211C153.214 333.614 153.214 333.557 153.214 333.503ZM151.933 332.399C152.467 332.399 152.779 332.75 152.821 333.35H151.003C151.063 332.789 151.396 332.399 151.933 332.399Z" fill="white"/>
<path d="M120.804 270.1L119.745 272.791C119.643 273.055 119.574 273.253 119.496 273.481C119.418 273.25 119.331 273.007 119.247 272.791L118.188 270.1H117.567V274H117.96V271.294C117.96 271.03 117.957 270.793 117.954 270.535C118.041 270.796 118.131 271.042 118.239 271.312L119.316 274H119.676L120.753 271.312C120.858 271.045 120.948 270.802 121.038 270.529C121.035 270.802 121.032 271.036 121.032 271.294V274H121.425V270.1H120.804ZM124.911 273.697C124.698 273.697 124.668 273.541 124.668 273.388V272.236C124.668 271.684 124.482 271.063 123.534 271.063C122.925 271.063 122.532 271.333 122.37 271.876L122.724 271.993C122.85 271.6 123.072 271.402 123.537 271.402C124.113 271.402 124.281 271.762 124.281 272.233V272.443C124.062 272.416 123.843 272.401 123.642 272.401C122.88 272.401 122.295 272.599 122.295 273.223C122.295 273.751 122.7 274.06 123.282 274.06C123.756 274.06 124.122 273.847 124.311 273.541C124.335 273.856 124.47 274.03 124.83 274.03C124.914 274.03 124.992 274.021 125.079 274.003V273.682C125.019 273.694 124.968 273.697 124.911 273.697ZM123.33 273.718C122.985 273.718 122.718 273.565 122.718 273.214C122.718 272.836 123.081 272.713 123.654 272.713C123.852 272.713 124.062 272.725 124.281 272.749V273.226C124.089 273.532 123.741 273.718 123.33 273.718ZM127.262 273.571C127.142 273.652 127.019 273.691 126.857 273.691C126.5 273.691 126.338 273.496 126.338 273.064V271.456H127.328V271.123H126.338V270.187L125.948 270.241V271.123H125.327V271.456H125.948V273.109C125.948 273.763 126.284 274.045 126.812 274.045C127.043 274.045 127.226 273.988 127.394 273.88L127.262 273.571ZM129.164 274.06C129.794 274.06 130.268 273.757 130.412 273.112L130.064 273.04C129.941 273.463 129.662 273.712 129.167 273.712C128.525 273.712 128.171 273.214 128.171 272.56C128.171 271.909 128.525 271.411 129.167 271.411C129.662 271.411 129.941 271.66 130.064 272.083L130.412 272.011C130.268 271.366 129.794 271.063 129.164 271.063C128.303 271.063 127.772 271.714 127.772 272.56C127.772 273.406 128.303 274.06 129.164 274.06ZM132.583 271.063C132.106 271.063 131.749 271.3 131.569 271.669V269.812H131.176V274H131.569V272.491C131.569 271.822 131.977 271.429 132.517 271.429C133.009 271.429 133.246 271.705 133.246 272.317V274H133.639V272.26C133.639 271.474 133.291 271.063 132.583 271.063Z" fill="white"/>
<path d="M140.583 271.957C140.976 271.795 141.198 271.501 141.198 271.117C141.198 270.451 140.598 270.046 139.743 270.046C138.888 270.046 138.288 270.451 138.288 271.117C138.288 271.501 138.51 271.795 138.903 271.957C138.432 272.125 138.174 272.455 138.174 272.902C138.174 273.595 138.852 274.054 139.743 274.054C140.634 274.054 141.312 273.595 141.312 272.902C141.312 272.455 141.054 272.125 140.583 271.957ZM139.743 270.796C140.04 270.796 140.187 270.961 140.187 271.189C140.187 271.444 140.019 271.6 139.743 271.6C139.467 271.6 139.299 271.444 139.299 271.189C139.299 270.961 139.446 270.796 139.743 270.796ZM139.743 273.298C139.404 273.298 139.197 273.094 139.197 272.806C139.197 272.506 139.398 272.32 139.743 272.32C140.088 272.32 140.289 272.506 140.289 272.806C140.289 273.094 140.082 273.298 139.743 273.298ZM143.157 270.046C142.212 270.046 141.621 270.628 141.621 271.429C141.621 272.137 142.086 272.68 142.848 272.68C143.28 272.68 143.61 272.506 143.784 272.161C143.751 272.83 143.412 273.154 142.854 273.154C142.539 273.154 142.278 273.082 142.035 272.932L141.723 273.76C142.041 273.952 142.44 274.054 142.869 274.054C144.129 274.054 144.735 273.193 144.735 271.915C144.735 270.718 144.18 270.046 143.157 270.046ZM143.148 271.84C142.839 271.84 142.623 271.681 142.623 271.381C142.623 271.081 142.842 270.904 143.172 270.904C143.598 270.904 143.739 271.195 143.733 271.567C143.601 271.75 143.382 271.84 143.148 271.84ZM146.03 272.008C146.618 272.008 147.002 271.6 147.002 271.03C147.002 270.454 146.618 270.046 146.03 270.046C145.442 270.046 145.052 270.454 145.052 271.03C145.052 271.6 145.442 272.008 146.03 272.008ZM145.436 274H146.3L148.856 270.1H147.992L145.436 274ZM146.03 271.33C145.868 271.33 145.772 271.216 145.772 271.03C145.772 270.838 145.868 270.718 146.03 270.718C146.186 270.718 146.282 270.838 146.282 271.03C146.282 271.216 146.186 271.33 146.03 271.33ZM148.256 274.054C148.844 274.054 149.234 273.646 149.234 273.07C149.234 272.5 148.844 272.092 148.256 272.092C147.668 272.092 147.284 272.5 147.284 273.07C147.284 273.646 147.668 274.054 148.256 274.054ZM148.256 273.382C148.1 273.382 148.004 273.262 148.004 273.07C148.004 272.884 148.1 272.77 148.256 272.77C148.418 272.77 148.508 272.884 148.508 273.07C148.508 273.262 148.418 273.382 148.256 273.382Z" fill="white"/>
<rect x="111.2" y="287.2" width="22.6" height="5.6" rx="2.8" stroke="#5375FF" stroke-width="0.4"/>
<rect x="139.2" y="287.2" width="18.6" height="5.6" rx="2.8" stroke="#5375FF" stroke-width="0.4"/>
<rect x="167.2" y="287.2" width="9.6" height="5.6" rx="2.8" stroke="#5375FF" stroke-width="0.4"/>
<rect x="104" y="368" width="95" height="132" rx="15" fill="#E7E7E7"/>
<g clip-path="url(#clip11)">
<g filter="url(#filter13_d)">
<path d="M182.971 478.714H177.029C174.567 478.714 172.571 480.71 172.571 483.171V489.114C172.571 491.576 174.567 493.571 177.029 493.571H182.971C185.433 493.571 187.429 491.576 187.429 489.114V483.171C187.429 480.71 185.433 478.714 182.971 478.714Z" fill="black"/>
</g>
<path d="M182.971 478.714H177.029C174.567 478.714 172.571 480.71 172.571 483.171V489.114C172.571 491.576 174.567 493.571 177.029 493.571H182.971C185.433 493.571 187.429 491.576 187.429 489.114V483.171C187.429 480.71 185.433 478.714 182.971 478.714Z" fill="#5375FF"/>
<path d="M183.19 482.953C183.061 482.824 182.879 482.772 182.702 482.814L182.699 482.814L176.866 484.242C176.305 484.379 175.914 484.877 175.914 485.454V486.224C175.914 486.504 176.136 486.734 176.414 486.746L178.609 487.119C178.655 487.127 178.702 487.112 178.736 487.079L181.322 484.493C181.412 484.402 181.559 484.402 181.65 484.493C181.741 484.583 181.741 484.731 181.65 484.821L179.064 487.407C179.031 487.44 179.016 487.488 179.023 487.534L179.397 489.728C179.409 490.006 179.638 490.228 179.919 490.228H180.689C181.265 490.228 181.764 489.837 181.901 489.278L183.328 483.444L183.329 483.441C183.37 483.264 183.318 483.082 183.19 482.953Z" fill="#FBFBFB"/>
</g>
<rect x="113" y="454" width="77" height="3" rx="1.5" fill="#B0AFAF"/>
<rect x="130" y="461" width="47" height="3" rx="1.5" fill="#B0AFAF"/>
<circle cx="127" cy="393" r="11" fill="#C4C4C4"/>
<rect x="143" y="386" width="41" height="3" rx="1.5" fill="#B0AFAF"/>
<rect x="143" y="392" width="33" height="1" rx="0.5" fill="#C4C4C4"/>
<rect x="111" y="418" width="82" height="14" rx="2" fill="#E5ECFE"/>
<rect x="111" y="418" width="79" height="14" rx="2" fill="url(#paint6_linear)"/>
<g filter="url(#filter14_d)">
<rect x="114" y="479" width="50" height="14" rx="2" fill="#5375FF"/>
</g>
<path d="M125.857 488.06C126.682 488.06 127.138 487.628 127.141 486.98C127.144 486.227 126.532 486.05 125.878 485.861C125.275 485.684 124.876 485.546 124.876 485.072C124.876 484.664 125.17 484.394 125.74 484.394C126.415 484.394 126.706 484.781 126.748 485.357L127.108 485.279C127.09 484.442 126.562 484.04 125.755 484.04C125.002 484.04 124.459 484.412 124.459 485.099C124.459 485.81 125.026 486.038 125.707 486.221C126.331 486.395 126.73 486.518 126.73 486.998C126.73 487.493 126.385 487.703 125.863 487.703C125.089 487.703 124.702 487.343 124.714 486.665L124.333 486.725C124.315 487.667 125.002 488.06 125.857 488.06ZM129.4 485.063C128.923 485.063 128.566 485.3 128.386 485.669V483.812H127.993V488H128.386V486.491C128.386 485.822 128.794 485.429 129.334 485.429C129.826 485.429 130.063 485.705 130.063 486.317V488H130.456V486.26C130.456 485.474 130.108 485.063 129.4 485.063ZM132.553 488.06C133.42 488.06 133.981 487.415 133.981 486.56C133.981 485.705 133.42 485.063 132.553 485.063C131.686 485.063 131.122 485.705 131.122 486.56C131.122 487.415 131.686 488.06 132.553 488.06ZM132.553 487.709C131.926 487.709 131.521 487.22 131.521 486.56C131.521 485.9 131.926 485.414 132.553 485.414C133.177 485.414 133.582 485.9 133.582 486.56C133.582 487.22 133.177 487.709 132.553 487.709ZM138.071 485.123L137.615 486.8C137.534 487.1 137.465 487.388 137.39 487.697C137.312 487.376 137.234 487.085 137.15 486.797L136.652 485.126H136.205L135.704 486.797C135.62 487.085 135.542 487.376 135.464 487.697C135.389 487.388 135.32 487.1 135.242 486.8L134.786 485.123H134.378L135.203 488H135.701L136.25 486.185C136.316 485.966 136.367 485.75 136.427 485.522C136.487 485.75 136.541 485.966 136.607 486.185L137.153 488H137.651L138.476 485.123H138.071ZM143.556 485.063C143.058 485.063 142.734 485.303 142.578 485.681C142.464 485.276 142.191 485.063 141.717 485.063C141.234 485.063 140.928 485.285 140.772 485.639L140.778 485.123H140.403V488H140.793V486.482C140.793 485.81 141.105 485.42 141.648 485.42C142.107 485.42 142.257 485.699 142.257 486.302V488H142.644V486.482C142.644 485.81 142.953 485.42 143.496 485.42C143.958 485.42 144.108 485.708 144.108 486.302V488H144.495V486.26C144.495 485.492 144.225 485.063 143.556 485.063ZM146.598 488.06C147.465 488.06 148.026 487.415 148.026 486.56C148.026 485.705 147.465 485.063 146.598 485.063C145.731 485.063 145.167 485.705 145.167 486.56C145.167 487.415 145.731 488.06 146.598 488.06ZM146.598 487.709C145.971 487.709 145.566 487.22 145.566 486.56C145.566 485.9 145.971 485.414 146.598 485.414C147.222 485.414 147.627 485.9 147.627 486.56C147.627 487.22 147.222 487.709 146.598 487.709ZM149.116 485.711L149.122 485.123H148.747V488H149.134V486.476C149.134 485.726 149.707 485.354 150.268 485.501L150.295 485.09C149.764 484.973 149.311 485.207 149.116 485.711ZM153.214 486.503C153.214 485.642 152.743 485.063 151.933 485.063C151.12 485.063 150.598 485.72 150.598 486.554C150.598 487.406 151.141 488.06 151.978 488.06C152.56 488.06 152.992 487.79 153.16 487.277L152.851 487.169C152.713 487.511 152.443 487.718 151.978 487.718C151.402 487.718 151.039 487.289 150.994 486.674H153.211C153.214 486.614 153.214 486.557 153.214 486.503ZM151.933 485.399C152.467 485.399 152.779 485.75 152.821 486.35H151.003C151.063 485.789 151.396 485.399 151.933 485.399Z" fill="white"/>
<path d="M120.804 423.1L119.745 425.791C119.643 426.055 119.574 426.253 119.496 426.481C119.418 426.25 119.331 426.007 119.247 425.791L118.188 423.1H117.567V427H117.96V424.294C117.96 424.03 117.957 423.793 117.954 423.535C118.041 423.796 118.131 424.042 118.239 424.312L119.316 427H119.676L120.753 424.312C120.858 424.045 120.948 423.802 121.038 423.529C121.035 423.802 121.032 424.036 121.032 424.294V427H121.425V423.1H120.804ZM124.911 426.697C124.698 426.697 124.668 426.541 124.668 426.388V425.236C124.668 424.684 124.482 424.063 123.534 424.063C122.925 424.063 122.532 424.333 122.37 424.876L122.724 424.993C122.85 424.6 123.072 424.402 123.537 424.402C124.113 424.402 124.281 424.762 124.281 425.233V425.443C124.062 425.416 123.843 425.401 123.642 425.401C122.88 425.401 122.295 425.599 122.295 426.223C122.295 426.751 122.7 427.06 123.282 427.06C123.756 427.06 124.122 426.847 124.311 426.541C124.335 426.856 124.47 427.03 124.83 427.03C124.914 427.03 124.992 427.021 125.079 427.003V426.682C125.019 426.694 124.968 426.697 124.911 426.697ZM123.33 426.718C122.985 426.718 122.718 426.565 122.718 426.214C122.718 425.836 123.081 425.713 123.654 425.713C123.852 425.713 124.062 425.725 124.281 425.749V426.226C124.089 426.532 123.741 426.718 123.33 426.718ZM127.262 426.571C127.142 426.652 127.019 426.691 126.857 426.691C126.5 426.691 126.338 426.496 126.338 426.064V424.456H127.328V424.123H126.338V423.187L125.948 423.241V424.123H125.327V424.456H125.948V426.109C125.948 426.763 126.284 427.045 126.812 427.045C127.043 427.045 127.226 426.988 127.394 426.88L127.262 426.571ZM129.164 427.06C129.794 427.06 130.268 426.757 130.412 426.112L130.064 426.04C129.941 426.463 129.662 426.712 129.167 426.712C128.525 426.712 128.171 426.214 128.171 425.56C128.171 424.909 128.525 424.411 129.167 424.411C129.662 424.411 129.941 424.66 130.064 425.083L130.412 425.011C130.268 424.366 129.794 424.063 129.164 424.063C128.303 424.063 127.772 424.714 127.772 425.56C127.772 426.406 128.303 427.06 129.164 427.06ZM132.583 424.063C132.106 424.063 131.749 424.3 131.569 424.669V422.812H131.176V427H131.569V425.491C131.569 424.822 131.977 424.429 132.517 424.429C133.009 424.429 133.246 424.705 133.246 425.317V427H133.639V425.26C133.639 424.474 133.291 424.063 132.583 424.063Z" fill="white"/>
<path d="M139.671 423.046C138.726 423.046 138.135 423.628 138.135 424.429C138.135 425.137 138.6 425.68 139.362 425.68C139.794 425.68 140.124 425.506 140.298 425.161C140.265 425.83 139.926 426.154 139.368 426.154C139.053 426.154 138.792 426.082 138.549 425.932L138.237 426.76C138.555 426.952 138.954 427.054 139.383 427.054C140.643 427.054 141.249 426.193 141.249 424.915C141.249 423.718 140.694 423.046 139.671 423.046ZM139.662 424.84C139.353 424.84 139.137 424.681 139.137 424.381C139.137 424.081 139.356 423.904 139.686 423.904C140.112 423.904 140.253 424.195 140.247 424.567C140.115 424.75 139.896 424.84 139.662 424.84ZM143.999 424.957C144.392 424.795 144.614 424.501 144.614 424.117C144.614 423.451 144.014 423.046 143.159 423.046C142.304 423.046 141.704 423.451 141.704 424.117C141.704 424.501 141.926 424.795 142.319 424.957C141.848 425.125 141.59 425.455 141.59 425.902C141.59 426.595 142.268 427.054 143.159 427.054C144.05 427.054 144.728 426.595 144.728 425.902C144.728 425.455 144.47 425.125 143.999 424.957ZM143.159 423.796C143.456 423.796 143.603 423.961 143.603 424.189C143.603 424.444 143.435 424.6 143.159 424.6C142.883 424.6 142.715 424.444 142.715 424.189C142.715 423.961 142.862 423.796 143.159 423.796ZM143.159 426.298C142.82 426.298 142.613 426.094 142.613 425.806C142.613 425.506 142.814 425.32 143.159 425.32C143.504 425.32 143.705 425.506 143.705 425.806C143.705 426.094 143.498 426.298 143.159 426.298ZM146.03 425.008C146.618 425.008 147.002 424.6 147.002 424.03C147.002 423.454 146.618 423.046 146.03 423.046C145.442 423.046 145.052 423.454 145.052 424.03C145.052 424.6 145.442 425.008 146.03 425.008ZM145.436 427H146.3L148.856 423.1H147.992L145.436 427ZM146.03 424.33C145.868 424.33 145.772 424.216 145.772 424.03C145.772 423.838 145.868 423.718 146.03 423.718C146.186 423.718 146.282 423.838 146.282 424.03C146.282 424.216 146.186 424.33 146.03 424.33ZM148.256 427.054C148.844 427.054 149.234 426.646 149.234 426.07C149.234 425.5 148.844 425.092 148.256 425.092C147.668 425.092 147.284 425.5 147.284 426.07C147.284 426.646 147.668 427.054 148.256 427.054ZM148.256 426.382C148.1 426.382 148.004 426.262 148.004 426.07C148.004 425.884 148.1 425.77 148.256 425.77C148.418 425.77 148.508 425.884 148.508 426.07C148.508 426.262 148.418 426.382 148.256 426.382Z" fill="white"/>
<rect x="111.2" y="440.2" width="22.6" height="5.6" rx="2.8" stroke="#5375FF" stroke-width="0.4"/>
<rect x="139.2" y="440.2" width="18.6" height="5.6" rx="2.8" stroke="#5375FF" stroke-width="0.4"/>
<rect x="167.2" y="440.2" width="9.6" height="5.6" rx="2.8" stroke="#5375FF" stroke-width="0.4"/>
<defs>
<filter id="filter0_d" x="0" y="67" width="473" height="489" filterUnits="userSpaceOnUse" color-interpolation-filters="sRGB">
<feFlood flood-opacity="0" result="BackgroundImageFix"/>
<feColorMatrix in="SourceAlpha" type="matrix" values="0 0 0 0 0 0 0 0 0 0 0 0 0 0 0 0 0 0 127 0"/>
<feOffset dy="8"/>
<feGaussianBlur stdDeviation="5"/>
<feColorMatrix type="matrix" values="0 0 0 0 0 0 0 0 0 0 0 0 0 0 0 0 0 0 0.25 0"/>
<feBlend mode="normal" in2="BackgroundImageFix" result="effect1_dropShadow"/>
<feBlend mode="normal" in="SourceGraphic" in2="effect1_dropShadow" result="shape"/>
</filter>
<filter id="filter1_d" x="170" y="0" width="132" height="132" filterUnits="userSpaceOnUse" color-interpolation-filters="sRGB">
<feFlood flood-opacity="0" result="BackgroundImageFix"/>
<feColorMatrix in="SourceAlpha" type="matrix" values="0 0 0 0 0 0 0 0 0 0 0 0 0 0 0 0 0 0 127 0"/>
<feOffset dy="4"/>
<feGaussianBlur stdDeviation="2"/>
<feColorMatrix type="matrix" values="0 0 0 0 0 0 0 0 0 0 0 0 0 0 0 0 0 0 0.25 0"/>
<feBlend mode="normal" in2="BackgroundImageFix" result="effect1_dropShadow"/>
<feBlend mode="normal" in="SourceGraphic" in2="effect1_dropShadow" result="shape"/>
</filter>
<filter id="filter2_d" x="110" y="324" width="58" height="22" filterUnits="userSpaceOnUse" color-interpolation-filters="sRGB">
<feFlood flood-opacity="0" result="BackgroundImageFix"/>
<feColorMatrix in="SourceAlpha" type="matrix" values="0 0 0 0 0 0 0 0 0 0 0 0 0 0 0 0 0 0 127 0"/>
<feOffset dy="2"/>
<feGaussianBlur stdDeviation="2"/>
<feColorMatrix type="matrix" values="0 0 0 0 0 0 0 0 0 0 0 0 0 0 0 0 0 0 0.25 0"/>
<feBlend mode="normal" in2="BackgroundImageFix" result="effect1_dropShadow"/>
<feBlend mode="normal" in="SourceGraphic" in2="effect1_dropShadow" result="shape"/>
</filter>
<filter id="filter3_d" x="278.571" y="315.714" width="44.8571" height="44.8571" filterUnits="userSpaceOnUse" color-interpolation-filters="sRGB">
<feFlood flood-opacity="0" result="BackgroundImageFix"/>
<feColorMatrix in="SourceAlpha" type="matrix" values="0 0 0 0 0 0 0 0 0 0 0 0 0 0 0 0 0 0 127 0"/>
<feOffset dy="5"/>
<feGaussianBlur stdDeviation="7.5"/>
<feColorMatrix type="matrix" values="0 0 0 0 0.0470588 0 0 0 0 0.0666667 0 0 0 0 0.109804 0 0 0 0.151825 0"/>
<feBlend mode="normal" in2="BackgroundImageFix" result="effect1_dropShadow"/>
<feBlend mode="normal" in="SourceGraphic" in2="effect1_dropShadow" result="shape"/>
</filter>
<filter id="filter4_d" x="231" y="324" width="58" height="22" filterUnits="userSpaceOnUse" color-interpolation-filters="sRGB">
<feFlood flood-opacity="0" result="BackgroundImageFix"/>
<feColorMatrix in="SourceAlpha" type="matrix" values="0 0 0 0 0 0 0 0 0 0 0 0 0 0 0 0 0 0 127 0"/>
<feOffset dy="2"/>
<feGaussianBlur stdDeviation="2"/>
<feColorMatrix type="matrix" values="0 0 0 0 0 0 0 0 0 0 0 0 0 0 0 0 0 0 0.25 0"/>
<feBlend mode="normal" in2="BackgroundImageFix" result="effect1_dropShadow"/>
<feBlend mode="normal" in="SourceGraphic" in2="effect1_dropShadow" result="shape"/>
</filter>
<filter id="filter5_d" x="399.571" y="315.714" width="44.8571" height="44.8571" filterUnits="userSpaceOnUse" color-interpolation-filters="sRGB">
<feFlood flood-opacity="0" result="BackgroundImageFix"/>
<feColorMatrix in="SourceAlpha" type="matrix" values="0 0 0 0 0 0 0 0 0 0 0 0 0 0 0 0 0 0 127 0"/>
<feOffset dy="5"/>
<feGaussianBlur stdDeviation="7.5"/>
<feColorMatrix type="matrix" values="0 0 0 0 0.0470588 0 0 0 0 0.0666667 0 0 0 0 0.109804 0 0 0 0.151825 0"/>
<feBlend mode="normal" in2="BackgroundImageFix" result="effect1_dropShadow"/>
<feBlend mode="normal" in="SourceGraphic" in2="effect1_dropShadow" result="shape"/>
</filter>
<filter id="filter6_d" x="352" y="324" width="58" height="22" filterUnits="userSpaceOnUse" color-interpolation-filters="sRGB">
<feFlood flood-opacity="0" result="BackgroundImageFix"/>
<feColorMatrix in="SourceAlpha" type="matrix" values="0 0 0 0 0 0 0 0 0 0 0 0 0 0 0 0 0 0 127 0"/>
<feOffset dy="2"/>
<feGaussianBlur stdDeviation="2"/>
<feColorMatrix type="matrix" values="0 0 0 0 0 0 0 0 0 0 0 0 0 0 0 0 0 0 0.25 0"/>
<feBlend mode="normal" in2="BackgroundImageFix" result="effect1_dropShadow"/>
<feBlend mode="normal" in="SourceGraphic" in2="effect1_dropShadow" result="shape"/>
</filter>
<filter id="filter7_d" x="278.571" y="468.714" width="44.8571" height="44.8571" filterUnits="userSpaceOnUse" color-interpolation-filters="sRGB">
<feFlood flood-opacity="0" result="BackgroundImageFix"/>
<feColorMatrix in="SourceAlpha" type="matrix" values="0 0 0 0 0 0 0 0 0 0 0 0 0 0 0 0 0 0 127 0"/>
<feOffset dy="5"/>
<feGaussianBlur stdDeviation="7.5"/>
<feColorMatrix type="matrix" values="0 0 0 0 0.0470588 0 0 0 0 0.0666667 0 0 0 0 0.109804 0 0 0 0.151825 0"/>
<feBlend mode="normal" in2="BackgroundImageFix" result="effect1_dropShadow"/>
<feBlend mode="normal" in="SourceGraphic" in2="effect1_dropShadow" result="shape"/>
</filter>
<filter id="filter8_d" x="231" y="477" width="58" height="22" filterUnits="userSpaceOnUse" color-interpolation-filters="sRGB">
<feFlood flood-opacity="0" result="BackgroundImageFix"/>
<feColorMatrix in="SourceAlpha" type="matrix" values="0 0 0 0 0 0 0 0 0 0 0 0 0 0 0 0 0 0 127 0"/>
<feOffset dy="2"/>
<feGaussianBlur stdDeviation="2"/>
<feColorMatrix type="matrix" values="0 0 0 0 0 0 0 0 0 0 0 0 0 0 0 0 0 0 0.25 0"/>
<feBlend mode="normal" in2="BackgroundImageFix" result="effect1_dropShadow"/>
<feBlend mode="normal" in="SourceGraphic" in2="effect1_dropShadow" result="shape"/>
</filter>
<filter id="filter9_d" x="399.571" y="468.714" width="44.8571" height="44.8571" filterUnits="userSpaceOnUse" color-interpolation-filters="sRGB">
<feFlood flood-opacity="0" result="BackgroundImageFix"/>
<feColorMatrix in="SourceAlpha" type="matrix" values="0 0 0 0 0 0 0 0 0 0 0 0 0 0 0 0 0 0 127 0"/>
<feOffset dy="5"/>
<feGaussianBlur stdDeviation="7.5"/>
<feColorMatrix type="matrix" values="0 0 0 0 0.0470588 0 0 0 0 0.0666667 0 0 0 0 0.109804 0 0 0 0.151825 0"/>
<feBlend mode="normal" in2="BackgroundImageFix" result="effect1_dropShadow"/>
<feBlend mode="normal" in="SourceGraphic" in2="effect1_dropShadow" result="shape"/>
</filter>
<filter id="filter10_d" x="352" y="477" width="58" height="22" filterUnits="userSpaceOnUse" color-interpolation-filters="sRGB">
<feFlood flood-opacity="0" result="BackgroundImageFix"/>
<feColorMatrix in="SourceAlpha" type="matrix" values="0 0 0 0 0 0 0 0 0 0 0 0 0 0 0 0 0 0 127 0"/>
<feOffset dy="2"/>
<feGaussianBlur stdDeviation="2"/>
<feColorMatrix type="matrix" values="0 0 0 0 0 0 0 0 0 0 0 0 0 0 0 0 0 0 0.25 0"/>
<feBlend mode="normal" in2="BackgroundImageFix" result="effect1_dropShadow"/>
<feBlend mode="normal" in="SourceGraphic" in2="effect1_dropShadow" result="shape"/>
</filter>
<filter id="filter11_d" x="157.571" y="315.714" width="44.8571" height="44.8571" filterUnits="userSpaceOnUse" color-interpolation-filters="sRGB">
<feFlood flood-opacity="0" result="BackgroundImageFix"/>
<feColorMatrix in="SourceAlpha" type="matrix" values="0 0 0 0 0 0 0 0 0 0 0 0 0 0 0 0 0 0 127 0"/>
<feOffset dy="5"/>
<feGaussianBlur stdDeviation="7.5"/>
<feColorMatrix type="matrix" values="0 0 0 0 0.0470588 0 0 0 0 0.0666667 0 0 0 0 0.109804 0 0 0 0.151825 0"/>
<feBlend mode="normal" in2="BackgroundImageFix" result="effect1_dropShadow"/>
<feBlend mode="normal" in="SourceGraphic" in2="effect1_dropShadow" result="shape"/>
</filter>
<filter id="filter12_d" x="110" y="324" width="58" height="22" filterUnits="userSpaceOnUse" color-interpolation-filters="sRGB">
<feFlood flood-opacity="0" result="BackgroundImageFix"/>
<feColorMatrix in="SourceAlpha" type="matrix" values="0 0 0 0 0 0 0 0 0 0 0 0 0 0 0 0 0 0 127 0"/>
<feOffset dy="2"/>
<feGaussianBlur stdDeviation="2"/>
<feColorMatrix type="matrix" values="0 0 0 0 0 0 0 0 0 0 0 0 0 0 0 0 0 0 0.25 0"/>
<feBlend mode="normal" in2="BackgroundImageFix" result="effect1_dropShadow"/>
<feBlend mode="normal" in="SourceGraphic" in2="effect1_dropShadow" result="shape"/>
</filter>
<filter id="filter13_d" x="157.571" y="468.714" width="44.8571" height="44.8571" filterUnits="userSpaceOnUse" color-interpolation-filters="sRGB">
<feFlood flood-opacity="0" result="BackgroundImageFix"/>
<feColorMatrix in="SourceAlpha" type="matrix" values="0 0 0 0 0 0 0 0 0 0 0 0 0 0 0 0 0 0 127 0"/>
<feOffset dy="5"/>
<feGaussianBlur stdDeviation="7.5"/>
<feColorMatrix type="matrix" values="0 0 0 0 0.0470588 0 0 0 0 0.0666667 0 0 0 0 0.109804 0 0 0 0.151825 0"/>
<feBlend mode="normal" in2="BackgroundImageFix" result="effect1_dropShadow"/>
<feBlend mode="normal" in="SourceGraphic" in2="effect1_dropShadow" result="shape"/>
</filter>
<filter id="filter14_d" x="110" y="477" width="58" height="22" filterUnits="userSpaceOnUse" color-interpolation-filters="sRGB">
<feFlood flood-opacity="0" result="BackgroundImageFix"/>
<feColorMatrix in="SourceAlpha" type="matrix" values="0 0 0 0 0 0 0 0 0 0 0 0 0 0 0 0 0 0 127 0"/>
<feOffset dy="2"/>
<feGaussianBlur stdDeviation="2"/>
<feColorMatrix type="matrix" values="0 0 0 0 0 0 0 0 0 0 0 0 0 0 0 0 0 0 0.25 0"/>
<feBlend mode="normal" in2="BackgroundImageFix" result="effect1_dropShadow"/>
<feBlend mode="normal" in="SourceGraphic" in2="effect1_dropShadow" result="shape"/>
</filter>
<linearGradient id="paint0_linear" x1="182" y1="272" x2="114" y2="272" gradientUnits="userSpaceOnUse">
<stop stop-color="#7C9EF8"/>
<stop offset="1" stop-color="#6A78F7"/>
</linearGradient>
<linearGradient id="paint1_linear" x1="285" y1="272" x2="234.239" y2="272" gradientUnits="userSpaceOnUse">
<stop stop-color="#7C9EF8"/>
<stop offset="1" stop-color="#6A78F7"/>
</linearGradient>
<linearGradient id="paint2_linear" x1="398" y1="272" x2="354.901" y2="272" gradientUnits="userSpaceOnUse">
<stop stop-color="#7C9EF8"/>
<stop offset="1" stop-color="#6A78F7"/>
</linearGradient>
<linearGradient id="paint3_linear" x1="285" y1="425" x2="234.239" y2="425" gradientUnits="userSpaceOnUse">
<stop stop-color="#7C9EF8"/>
<stop offset="1" stop-color="#6A78F7"/>
</linearGradient>
<linearGradient id="paint4_linear" x1="426" y1="425" x2="356.085" y2="425" gradientUnits="userSpaceOnUse">
<stop stop-color="#7C9EF8"/>
<stop offset="1" stop-color="#6A78F7"/>
</linearGradient>
<linearGradient id="paint5_linear" x1="182" y1="272" x2="114" y2="272" gradientUnits="userSpaceOnUse">
<stop stop-color="#7C9EF8"/>
<stop offset="1" stop-color="#6A78F7"/>
</linearGradient>
<linearGradient id="paint6_linear" x1="190" y1="425" x2="114.338" y2="425" gradientUnits="userSpaceOnUse">
<stop stop-color="#7C9EF8"/>
<stop offset="1" stop-color="#6A78F7"/>
</linearGradient>
<clipPath id="clip0">
<rect width="76" height="72" fill="white" transform="translate(197 22)"/>
</clipPath>
<clipPath id="clip1">
<rect width="30.3" height="18" fill="white" transform="translate(62 94)"/>
</clipPath>
<clipPath id="clip2">
<rect width="12" height="12.5708" fill="white" transform="translate(178 179.618)"/>
</clipPath>
<clipPath id="clip3">
<rect width="12" height="7.27505" fill="white" transform="translate(175 24.1376)"/>
</clipPath>
<clipPath id="clip4">
<rect width="20" height="20" fill="white" transform="translate(45 317)"/>
</clipPath>
<clipPath id="clip5">
<rect width="20" height="20" fill="white" transform="translate(45 279)"/>
</clipPath>
<clipPath id="clip6">
<rect width="26" height="26" fill="white" transform="translate(288 322)"/>
</clipPath>
<clipPath id="clip7">
<rect width="26" height="26" fill="white" transform="translate(409 322)"/>
</clipPath>
<clipPath id="clip8">
<rect width="26" height="26" fill="white" transform="translate(288 475)"/>
</clipPath>
<clipPath id="clip9">
<rect width="26" height="26" fill="white" transform="translate(409 475)"/>
</clipPath>
<clipPath id="clip10">
<rect width="26" height="26" fill="white" transform="translate(167 322)"/>
</clipPath>
<clipPath id="clip11">
<rect width="26" height="26" fill="white" transform="translate(167 475)"/>
</clipPath>
</defs>
</svg>
