<svg width="403" height="297" viewBox="0 0 403 297" fill="none" xmlns="http://www.w3.org/2000/svg">
<g clip-path="url(#clip0)">
<path d="M8.21418 293.138C5.80889 293.138 3.85742 291.184 3.85742 288.776V31.7127C3.85742 29.3047 5.80889 27.3511 8.21418 27.3511H9.93873C12.344 27.3511 14.2955 29.3047 14.2955 31.7127V288.776C14.2955 291.184 12.344 293.138 9.93873 293.138H8.21418V293.138Z" fill="#5375FF"/>
<path d="M9.93884 27.5782C12.208 27.5782 14.0687 29.441 14.0687 31.7127V288.776C14.0687 291.048 12.208 292.911 9.93884 292.911H8.21429C5.94514 292.911 4.08444 291.048 4.08444 288.776V31.7127C4.08444 29.441 5.94514 27.5782 8.21429 27.5782H9.93884V27.5782ZM9.93884 27.1239H8.21429C5.67285 27.1239 3.63062 29.2139 3.63062 31.7127V288.776C3.63062 291.321 5.67285 293.365 8.21429 293.365H9.93884C12.4803 293.365 14.5225 291.321 14.5225 288.776V31.7127C14.5225 29.2139 12.4803 27.1239 9.93884 27.1239Z" fill="black"/>
<path d="M5.58209 24.8522C7.26126 24.8522 8.62275 26.2152 8.62275 27.8963V285.369C8.62275 287.05 7.26126 288.413 5.58209 288.413H4.40214C2.72297 288.413 1.36149 287.05 1.36149 285.369V27.8963C1.36149 26.2152 2.72297 24.8522 4.40214 24.8522H5.58209V24.8522ZM5.58209 23.4892H4.40214C1.99685 23.4892 0 25.4883 0 27.8963V285.369C0 287.777 1.99685 289.776 4.40214 289.776H5.62748C8.03277 289.776 10.0296 287.777 10.0296 285.369V27.8963C9.98423 25.4883 7.98739 23.4892 5.58209 23.4892Z" fill="black"/>
<path d="M19.9683 296.773C17.1092 296.773 14.7493 294.41 14.7493 291.548C14.7493 288.686 17.1092 286.323 19.9683 286.323H386.072C388.931 286.323 391.291 288.686 391.291 291.548C391.291 294.41 388.931 296.773 386.072 296.773H19.9683Z" fill="#5375FF"/>
<path d="M386.072 286.55C388.84 286.55 391.064 288.777 391.064 291.548C391.064 294.319 388.84 296.546 386.072 296.546H19.9684C17.2001 296.546 14.9763 294.319 14.9763 291.548C14.9763 288.777 17.2001 286.55 19.9684 286.55H386.072ZM386.072 286.096H19.9684C16.9731 286.096 14.5225 288.549 14.5225 291.548C14.5225 294.547 16.9731 297 19.9684 297H386.072C389.067 297 391.518 294.547 391.518 291.548C391.518 288.549 389.067 286.096 386.072 286.096Z" fill="black"/>
<path d="M391.654 283.824C393.651 283.824 395.285 285.46 395.285 287.459C395.285 289.458 393.651 291.094 391.654 291.094H24.643C22.6461 291.094 21.0124 289.458 21.0124 287.459C21.0124 285.46 22.6461 283.824 24.643 283.824H391.654ZM391.654 282.461H24.643C21.92 282.461 19.6509 284.733 19.6509 287.459C19.6509 290.185 21.92 292.457 24.643 292.457H391.654C394.423 292.457 396.646 290.185 396.646 287.459C396.646 284.733 394.423 282.461 391.654 282.461Z" fill="black"/>
<path d="M14.1594 291.548C15.0217 286.959 15.9294 282.189 18.1531 278.009C20.3769 273.829 23.8714 270.785 28.3189 269.104C36.2609 266.06 45.0198 266.832 53.2341 265.06C61.3122 263.334 68.8458 259.245 74.8363 253.565C77.877 250.703 80.5092 247.386 82.5968 243.797C85.0021 239.708 86.5451 235.21 88.1789 230.758C89.8127 226.214 91.628 221.762 94.5325 217.855C97.3009 214.174 100.886 211.085 104.88 208.813C113.911 203.679 124.077 203.634 133.925 206.178C144 208.768 153.53 213.129 163.696 215.31C173.68 217.446 184.118 218.036 194.103 215.855C209.896 212.402 224.963 200.817 228.457 184.37C229.501 179.372 229.32 174.238 229.728 169.195C230.091 164.379 231.271 159.836 233.631 155.61C237.761 148.296 244.568 142.889 251.966 139.118C270.482 129.713 292.039 131.803 311.871 127.532C320.675 125.67 328.935 122.217 334.744 115.084C339.555 109.177 342.459 102.089 345.727 95.2744C349.13 88.1413 353.124 80.8719 359.841 76.3286C366.285 71.9669 374.273 70.1042 380.082 64.7884C392.153 53.8389 382.895 36.983 385.301 23.3983C385.891 20.0362 387.388 17.0831 389.93 14.7659C390.565 14.1753 389.612 13.2212 388.977 13.8118C383.803 18.4915 383.258 25.352 383.712 31.9399C384.257 39.391 386.163 47.1147 384.484 54.5658C382.578 63.1074 375.271 67.0147 367.964 70.4676C364.334 72.1941 360.658 73.9206 357.436 76.4194C354.713 78.5548 352.398 81.1446 350.447 83.9614C341.143 97.3189 338.602 115.583 322.355 122.898C312.507 127.305 301.161 128.123 290.587 129.168C280.421 130.167 270.074 131.076 260.316 134.257C245.068 139.209 230.545 150.295 228.548 167.151C227.913 172.603 228.276 178.145 227.232 183.507C226.415 187.687 224.736 191.685 222.467 195.319C217.883 202.543 210.894 208.132 203.088 211.585C193.603 215.765 182.938 216.582 172.727 215.447C161.881 214.265 151.806 210.494 141.504 207.087C132.246 203.997 122.352 201.68 112.686 204.179C104.744 206.223 97.5732 211.176 92.808 217.9C87.1805 225.851 85.9098 235.892 80.8269 244.115C76.1525 251.657 69.0727 257.654 60.9492 261.198C52.7349 264.788 43.976 264.606 35.2625 265.969C27.0482 267.241 19.8777 270.785 16.2924 278.645C14.4771 282.643 13.6148 286.914 12.7979 291.184C12.6618 292.048 13.9779 292.411 14.1594 291.548Z" fill="black"/>
<path d="M362.519 33.3483C367.601 32.5759 371.55 28.8504 374.59 24.9431C378.312 20.2634 381.579 15.1748 384.711 10.0863C386.526 7.08764 388.296 4.08901 389.93 0.999523C389.521 0.954089 389.113 0.908655 388.704 0.817788C391.427 9.49562 394.65 18.0372 398.416 26.3061C399.46 28.6686 400.595 30.9858 401.729 33.3029C402.138 34.0752 403.272 33.3937 402.909 32.6214C398.916 24.5342 395.421 16.2198 392.426 7.67827C391.564 5.27029 390.792 2.8623 390.021 0.408885C389.839 -0.136319 389.068 -0.27262 388.795 0.22715C385.891 5.54289 382.759 10.7223 379.401 15.7655C377.767 18.2189 376.133 20.6269 374.363 22.944C372.866 24.8976 371.277 26.8059 369.417 28.396C367.329 30.1679 364.924 31.4855 362.201 31.8944C361.293 32.167 361.702 33.4846 362.519 33.3483Z" fill="black"/>
<path d="M74.5187 266.423C74.6549 266.469 74.5641 267.014 74.6549 267.059C74.7003 267.059 74.8818 266.968 74.9272 266.923C75.1995 266.832 75.4264 266.832 75.6533 266.968C76.1525 267.241 76.6063 267.65 77.0602 267.968C77.5594 268.331 78.0586 268.695 78.5578 269.058C80.5093 270.467 82.5061 271.875 84.4576 273.284C85.1837 273.783 85.8644 272.602 85.1383 272.102C82.4153 270.149 79.7377 268.24 77.0148 266.287C76.5156 265.923 76.0617 265.56 75.381 265.514C74.9272 265.469 74.428 265.605 74.0195 265.787C73.0665 266.287 73.0665 267.332 74.0649 267.741C74.9725 268.059 75.3356 266.741 74.5187 266.423Z" fill="black"/>
<path d="M85.5467 248.977C92.3996 252.611 99.2524 256.201 106.06 259.835C108.011 260.88 110.008 261.925 111.96 262.97C112.731 263.379 113.412 262.198 112.64 261.789C105.788 258.154 98.9347 254.565 92.1273 250.93C90.1758 249.885 88.1789 248.84 86.2275 247.795C85.456 247.386 84.7298 248.568 85.5467 248.977Z" fill="black"/>
<path d="M100.478 236.073C112.504 243.388 124.258 251.157 135.786 259.29C139.053 261.607 142.275 263.924 145.498 266.287C146.224 266.787 146.904 265.605 146.178 265.106C134.833 256.746 123.215 248.795 111.324 241.207C107.966 239.072 104.562 236.937 101.158 234.892C100.432 234.438 99.7062 235.619 100.478 236.073Z" fill="black"/>
<path d="M129.251 231.712C134.197 232.666 138.463 235.392 142.593 238.118C147.268 241.207 151.897 244.388 156.571 247.477C165.965 253.793 175.36 260.108 184.799 266.423C190.064 269.967 195.328 273.511 200.593 277.009C200.819 276.6 201.046 276.237 201.273 275.828C200.456 275.283 199.594 274.737 198.777 274.192C198.051 273.693 197.37 274.874 198.096 275.374C198.913 275.919 199.776 276.464 200.593 277.009C201.319 277.509 201.999 276.328 201.273 275.828C191.788 269.467 182.349 263.106 172.864 256.791C163.469 250.476 154.075 244.161 144.635 237.845C139.961 234.71 135.196 231.485 129.568 230.394C128.751 230.258 128.388 231.575 129.251 231.712Z" fill="black"/>
<path d="M183.483 237.164C186.433 236.891 189.292 237.8 191.879 239.163C194.693 240.617 197.279 242.389 199.912 244.115C205.63 247.795 211.348 251.521 217.021 255.201C220.243 257.291 223.511 259.381 226.733 261.471C227.459 261.971 228.14 260.789 227.414 260.29C221.559 256.519 215.75 252.748 209.896 248.977C206.991 247.068 204.042 245.206 201.137 243.297C198.459 241.571 195.873 239.754 193.059 238.254C190.109 236.664 186.841 235.483 183.438 235.801C182.621 235.892 182.621 237.255 183.483 237.164Z" fill="black"/>
<path d="M240.847 238.89C250.65 242.57 259.908 247.795 268.122 254.292C270.437 256.11 272.615 258.018 274.748 260.017C275.383 260.608 276.336 259.654 275.701 259.063C267.941 251.748 259.091 245.66 249.47 241.071C246.792 239.799 244.024 238.618 241.21 237.573C240.393 237.255 240.03 238.572 240.847 238.89Z" fill="black"/>
<path d="M252.374 195.41C261.36 201.18 269.393 208.223 277.017 215.719C285.004 223.534 292.629 231.712 300.344 239.799C302.658 242.207 304.927 244.615 307.242 246.977C308.377 248.159 309.557 249.385 310.691 250.567C311.281 251.157 311.826 251.748 312.416 252.384C312.688 252.657 312.96 252.929 313.187 253.202C313.187 253.202 313.323 253.474 313.369 253.474C313.777 253.474 313.913 253.429 313.777 253.384C313.596 253.247 313.55 253.474 313.686 254.065C314.503 253.702 313.777 252.52 313.006 252.884C311.916 253.384 312.824 254.747 313.732 254.747C314.231 254.747 314.594 254.429 314.73 253.929C314.912 253.293 314.549 252.657 314.14 252.157C313.096 250.93 311.916 249.84 310.827 248.704C309.693 247.523 308.604 246.341 307.469 245.206C302.931 240.48 298.438 235.801 293.899 231.076C285.731 222.534 277.607 213.902 268.712 206.133C263.765 201.816 258.592 197.818 253.1 194.274C252.329 193.775 251.648 194.956 252.374 195.41Z" fill="black"/>
<path d="M272.751 167.423C283.552 177.237 294.308 187.187 304.882 197.228C315.456 207.223 325.894 217.309 336.287 227.532C342.142 233.257 347.951 239.072 353.714 244.888C353.986 244.524 354.259 244.161 354.531 243.797C353.85 243.388 353.215 242.934 352.534 242.525C351.808 242.071 351.127 243.252 351.853 243.706C352.534 244.115 353.17 244.57 353.85 244.978C354.531 245.387 355.212 244.433 354.667 243.888C344.365 233.529 333.973 223.261 323.444 213.084C313.006 202.998 302.432 192.957 291.767 183.098C285.776 177.509 279.74 171.966 273.659 166.469C273.069 165.878 272.116 166.832 272.751 167.423Z" fill="black"/>
<path d="M303.566 160.154C310.691 165.56 317.816 170.967 324.941 176.419C332.066 181.871 339.146 187.323 346.271 192.821C352.988 198 359.705 203.134 366.285 208.45C372.457 213.357 378.493 218.4 384.211 223.852C389.839 229.258 395.149 235.028 399.732 241.344C400.322 242.162 400.867 242.934 401.457 243.752C401.729 243.434 401.956 243.07 402.228 242.752C398.643 241.616 395.466 239.345 393.243 236.301C392.743 235.574 391.563 236.255 392.063 236.982C394.468 240.344 397.917 242.843 401.865 244.07C402.41 244.251 402.955 243.57 402.637 243.07C398.189 236.573 393.016 230.621 387.434 225.078C381.806 219.49 375.77 214.311 369.598 209.313C363.108 204.043 356.482 199 349.857 193.866C342.731 188.368 335.561 182.825 328.436 177.373C321.311 171.921 314.14 166.469 306.97 161.017C306.062 160.335 305.154 159.654 304.292 158.972C303.521 158.427 302.84 159.609 303.566 160.154Z" fill="black"/>
</g>
<defs>
<clipPath id="clip0">
<rect width="403" height="297" fill="white"/>
</clipPath>
</defs>
</svg>
