<svg width="445" height="558" viewBox="0 0 445 558" fill="none" xmlns="http://www.w3.org/2000/svg">
<g clip-path="url(#clip0)">
<path d="M403.048 88.5551L270.822 523.619H171.733L83.2607 284.559L14.7349 88.2338" fill="url(#paint0_linear)"/>
<path d="M220.891 392.2C292.71 392.2 350.93 334.052 350.93 262.324C350.93 190.595 292.71 132.447 220.891 132.447C149.073 132.447 90.853 190.595 90.853 262.324C90.853 334.052 149.073 392.2 220.891 392.2Z" fill="#5375FF"/>
<path d="M213.299 128.527C230.221 128.527 246.693 131.869 262.136 138.359C277.064 144.657 290.511 153.718 302.029 165.221C313.546 176.725 322.619 190.156 328.924 205.065C335.488 220.488 338.769 236.94 338.769 253.841C338.769 270.742 335.423 287.194 328.924 302.617C322.619 317.526 313.546 330.957 302.029 342.46C290.511 353.963 277.064 363.025 262.136 369.322C246.693 375.877 230.221 379.155 213.299 379.155C196.377 379.155 179.905 375.813 164.462 369.322C149.535 363.025 136.087 353.963 124.569 342.46C113.052 330.957 103.979 317.526 97.6737 302.617C91.1107 287.194 87.8291 270.742 87.8291 253.841C87.8291 236.94 91.175 220.488 97.6737 205.065C103.979 190.156 113.052 176.725 124.569 165.221C136.087 153.718 149.535 144.657 164.462 138.359C179.905 131.804 196.312 128.527 213.299 128.527ZM213.299 124.029C141.492 124.029 83.2607 182.187 83.2607 253.905C83.2607 325.623 141.492 383.782 213.299 383.782C285.106 383.782 343.337 325.623 343.337 253.905C343.337 182.187 285.106 124.029 213.299 124.029Z" fill="black"/>
<path d="M238.715 257.183H176.301C173.856 257.183 171.862 255.19 171.862 252.748V221.195C171.862 218.753 173.856 216.761 176.301 216.761H238.715C241.16 216.761 243.154 218.753 243.154 221.195V252.748C243.09 255.19 241.16 257.183 238.715 257.183Z" fill="#5375FF"/>
<path d="M277.128 142.279C270.05 155.132 273.975 170.555 278.672 183.537C283.884 197.932 290.576 213.74 284.206 228.842C281.375 235.59 276.935 241.438 273.911 248.057C271.015 254.355 269.6 261.295 269.921 268.236C270.179 275.176 272.045 282.117 275.455 288.158C278.994 294.455 284.141 299.661 288.452 305.444C292.763 311.164 295.787 317.526 296.946 324.595C298.039 331.407 297.267 338.604 294.887 345.031C294.243 346.702 293.535 348.308 292.699 349.85C292.12 350.943 293.793 351.907 294.372 350.814C300.935 338.733 301.064 323.502 294.629 311.292C291.219 304.866 286.136 299.596 281.696 293.877C277.321 288.222 274.039 281.924 272.624 274.855C271.273 267.915 271.594 260.653 273.718 253.841C275.841 246.965 280.088 240.988 283.498 234.69C285.171 231.541 286.715 228.264 287.616 224.858C288.581 221.131 288.967 217.275 288.774 213.483C288.388 205.643 286.007 198.06 283.369 190.734C278.608 177.432 272.045 162.458 276.613 148.192C277.192 146.457 277.9 144.85 278.736 143.243C279.38 142.151 277.707 141.187 277.128 142.279Z" fill="black"/>
<path d="M146.703 144.978C144.13 151.598 146.253 158.731 149.02 164.9C151.722 171.134 155.454 177.11 160.473 181.737C165.299 186.236 171.476 189.256 178.167 189.32C185.438 189.32 192.194 186.171 199.015 184.179C205.192 182.38 213.042 181.095 218.511 185.529C222.243 188.549 224.881 194.654 221.664 199.024C219.412 202.044 215.036 202.751 211.562 203.265C207.701 203.844 203.454 203.908 199.916 205.643C194.704 208.15 193.288 214.062 194.446 219.331C195.798 225.244 200.43 230.385 200.366 236.618C200.366 239.317 199.272 242.145 197.084 243.816C194.768 245.551 191.873 245.037 189.749 243.173C187.369 241.052 186.532 237.839 186.468 234.755C186.468 232.891 186.725 231.156 186.982 229.356C187.176 227.943 187.24 226.593 186.661 225.244C184.923 221.259 178.94 220.617 175.722 222.994C170.768 226.657 171.797 233.341 172.891 238.546C173.406 241.117 174.371 244.458 172.698 246.836C170.897 249.214 167.358 248.957 164.784 249.728C162.468 250.435 160.73 252.041 159.701 254.226C158.736 256.283 158.285 258.532 157.191 260.524C155.969 262.838 153.91 264.123 151.272 264.123C148.569 264.123 145.931 263.159 143.422 262.324C140.462 261.36 137.502 260.653 134.349 260.781C131.068 260.91 127.851 261.938 124.955 263.48C114.081 269.521 108.805 281.538 99.5396 289.379C97.0945 291.499 94.3278 293.299 91.2393 294.327C90.0811 294.712 90.5958 296.576 91.754 296.19C103.979 292.078 109.963 279.353 118.585 270.806C123.154 266.308 128.88 262.516 135.508 262.645C138.532 262.709 141.363 263.673 144.194 264.573C146.768 265.408 149.535 266.179 152.237 265.922C154.939 265.665 157.127 264.187 158.543 261.874C159.765 259.882 160.216 257.632 161.116 255.512C162.017 253.327 163.497 251.849 165.878 251.27C168.709 250.563 171.926 250.563 173.921 248.121C175.915 245.744 175.658 242.466 175.079 239.639C174.564 236.875 173.792 234.176 173.792 231.349C173.792 228.778 174.629 225.886 176.881 224.344C178.489 223.251 180.741 223.187 182.543 223.83C183.379 224.151 184.216 224.729 184.666 225.501C185.374 226.657 185.181 228.007 184.988 229.228C184.409 232.634 184.087 236.233 185.245 239.639C186.21 242.466 188.205 244.972 190.972 246.129C193.546 247.222 196.312 246.708 198.436 244.908C200.559 243.173 201.781 240.41 202.103 237.775C202.489 234.626 201.524 231.606 200.302 228.714C198.114 223.508 194.446 218.046 196.377 212.198C197.149 209.756 199.079 207.828 201.46 206.928C203.197 206.286 204.999 205.965 206.8 205.707C210.854 205.129 215.101 204.872 218.961 203.201C220.698 202.43 222.243 201.338 223.337 199.731C224.559 197.932 225.01 195.618 224.881 193.497C224.43 187.264 219.412 182.316 213.428 180.966C199.015 177.689 186.082 190.798 171.733 186.236C165.363 184.243 160.216 179.424 156.355 174.09C154.36 171.262 152.623 168.306 151.207 165.157C149.728 162.008 148.441 158.667 147.797 155.196C147.154 151.855 147.283 148.449 148.505 145.3C148.955 144.336 147.089 143.822 146.703 144.978Z" fill="black"/>
<path d="M182.028 294.198C181.449 291.242 182.414 288.093 184.537 285.973C186.725 283.788 190.071 283.016 193.095 283.788C198.757 285.266 200.623 291.628 203.326 296.062C204.741 298.311 206.478 300.432 208.923 301.653C211.369 302.874 214.2 303.259 216.902 303.452C221.857 303.838 228.806 303.709 230.414 309.686C232.216 316.562 225.653 322.089 220.248 324.916C217.159 326.523 213.814 327.423 210.403 328.001C207.251 328.515 203.905 329.029 201.202 330.957C198.693 332.692 197.213 335.327 195.733 337.897C194.317 340.339 192.773 342.91 190.135 344.131C184.923 346.38 178.746 342.974 177.009 337.833C175.98 334.813 176.237 331.471 177.331 328.451C178.489 325.366 180.805 323.117 182.736 320.546C183.701 319.197 184.537 317.719 184.923 316.112C185.374 314.313 185.309 312.385 185.116 310.521C184.666 306.537 184.023 302.553 183.443 298.568C183.186 296.576 182.864 294.584 182.607 292.592C182.543 292.078 181.899 291.821 181.449 291.949C180.87 292.078 180.677 292.592 180.805 293.106C181.449 297.411 182.028 301.717 182.671 306.023C183.25 309.943 184.28 314.249 182.285 317.847C180.612 320.868 177.846 323.181 176.301 326.33C174.821 329.35 174.242 332.756 174.757 336.098C175.207 339.183 176.752 342.139 179.261 344.067C181.577 345.866 184.537 346.894 187.497 346.702C190.586 346.509 193.224 345.095 195.09 342.717C197.02 340.275 198.178 337.383 200.108 334.877C202.232 332.114 205.256 330.957 208.602 330.314C212.205 329.607 215.744 329.093 219.154 327.615C225.331 324.98 232.345 319.839 232.795 312.578C232.988 309.364 231.765 306.28 229.192 304.352C226.94 302.681 224.173 302.167 221.47 301.91C218.575 301.653 215.615 301.653 212.72 300.946C209.889 300.239 207.701 298.697 206.028 296.319C202.811 291.756 201.267 285.394 195.926 282.695C192.902 281.217 189.234 281.217 186.146 282.695C183.25 284.109 181.127 286.936 180.484 290.085C180.162 291.628 180.162 293.17 180.484 294.712C180.419 295.869 182.285 295.419 182.028 294.198Z" fill="black"/>
<path d="M180.226 294.648C180.291 294.905 180.355 295.227 180.419 295.484C180.484 295.741 180.612 295.998 180.741 296.319C180.998 296.897 181.191 297.54 181.449 298.118C181.513 298.311 181.835 298.504 182.028 298.568C182.285 298.632 182.543 298.632 182.8 298.44C182.993 298.311 183.186 298.118 183.25 297.861C183.315 297.604 183.25 297.347 183.122 297.09C183.057 297.026 183.057 296.897 182.993 296.833C183.057 296.897 183.057 296.962 183.122 297.09C182.929 296.576 182.736 296.126 182.543 295.612C182.478 295.355 182.35 295.162 182.285 294.905C182.221 294.648 182.157 294.391 182.092 294.134C181.964 293.62 181.385 293.299 180.934 293.491C180.355 293.62 180.098 294.134 180.226 294.648Z" fill="black"/>
<path d="M182.157 293.62C182.35 293.234 182.35 292.849 182.35 292.399C182.35 292.013 182.35 291.692 182.285 291.306C182.285 291.242 182.285 291.178 182.221 291.114C182.221 291.114 182.157 290.921 182.157 290.857C182.157 290.985 182.157 291.049 182.157 290.985V290.921C182.157 290.857 182.157 290.728 182.157 290.664C182.157 290.535 182.157 290.343 182.157 290.214C182.157 290.15 182.157 290.085 182.157 290.021C182.157 289.957 182.157 289.957 182.157 289.893C182.157 290.214 181.964 290.471 181.578 290.6C181.385 290.6 181.256 290.6 181.063 290.6C181.063 290.6 181.063 290.6 181.127 290.6C181.385 290.664 181.642 290.664 181.899 290.471C182.092 290.343 182.285 290.15 182.35 289.893C182.478 289.443 182.221 288.8 181.706 288.736C181.32 288.672 180.934 288.736 180.677 289.057C180.419 289.314 180.355 289.636 180.355 289.957C180.355 290.343 180.291 290.664 180.355 291.049C180.355 291.307 180.419 291.499 180.484 291.692C180.484 291.756 180.484 291.756 180.484 291.821C180.484 291.949 180.484 291.628 180.484 291.756C180.484 291.821 180.484 291.949 180.484 292.013C180.484 292.206 180.484 292.399 180.484 292.528C180.484 292.592 180.484 292.72 180.484 292.785C180.484 292.849 180.484 292.977 180.484 292.785C180.484 292.72 180.484 292.656 180.484 292.72C180.484 292.785 180.484 292.785 180.548 292.592C180.291 293.042 180.419 293.684 180.87 293.941C181.256 294.198 181.899 294.134 182.157 293.62Z" fill="black"/>
<path d="M410.769 555.429H27.9252C20.4614 555.429 14.4131 549.389 14.4131 541.934C14.4131 534.48 20.4614 528.439 27.9252 528.439H410.769C418.233 528.439 424.282 534.48 424.282 541.934C424.282 549.389 418.233 555.429 410.769 555.429Z" fill="#5375FF"/>
<path d="M404.657 550.61H21.8127C14.3488 550.61 8.30054 544.569 8.30054 537.114C8.30054 529.66 14.3488 523.619 21.8127 523.619H404.657C412.121 523.619 418.169 529.66 418.169 537.114C418.169 544.569 412.121 550.61 404.657 550.61Z" stroke="black" stroke-width="5" stroke-miterlimit="10"/>
<path d="M393.397 556.393H360.581C358.973 556.393 357.686 555.108 357.686 553.502C357.686 551.895 358.973 550.61 360.581 550.61H393.397C395.005 550.61 396.292 551.895 396.292 553.502C396.292 555.108 395.005 556.393 393.397 556.393Z" stroke="black" stroke-width="3" stroke-miterlimit="10"/>
<path d="M333.879 456.785C332.463 456.914 332.721 454.407 332.914 453.572C333.428 451.58 334.458 449.652 335.552 447.917C337.804 444.189 340.828 440.912 344.431 438.406C352.281 433.007 362.126 432.044 370.297 427.16C377.568 422.854 383.166 416.235 387.091 408.78C389.085 405.053 390.63 401.069 391.788 397.02C393.139 392.2 393.976 387.252 395.327 382.432C397.579 374.463 402.212 365.531 410.962 363.41C411.927 363.153 412.957 363.089 413.922 363.025C415.145 363.025 415.145 361.097 413.922 361.097C404.85 361.225 398.287 369.001 395.134 376.777C393.203 381.661 392.238 386.866 391.08 391.943C390.051 396.506 388.699 401.004 386.705 405.246C382.973 413.214 377.375 420.476 369.847 425.167C361.482 430.373 351.187 431.272 343.08 436.992C339.412 439.627 336.259 442.968 333.943 446.888C332.849 448.752 331.755 450.808 331.176 452.929C330.726 454.471 330.726 456.592 331.884 457.813C332.399 458.392 333.171 458.713 333.943 458.649C335.101 458.584 335.101 456.656 333.879 456.785Z" fill="url(#paint1_linear)"/>
<path d="M337.868 477.799C337.096 474.843 339.283 472.208 341.793 470.923C345.139 469.252 349.321 470.152 352.86 470.859C360.581 472.53 368.367 473.429 376.281 473.365C380.206 473.301 384.131 473.044 387.992 472.594C391.723 472.144 395.455 471.501 399.059 470.345C402.662 469.188 405.815 467.324 409.161 465.589C412.442 463.918 415.788 462.697 419.456 462.119C427.627 460.834 435.992 462.44 443.777 464.689C445 465.011 445.515 463.147 444.292 462.826C437.021 460.705 429.3 459.227 421.708 459.87C418.04 460.191 414.501 461.026 411.091 462.504C407.488 464.047 404.142 466.296 400.474 467.774C396.807 469.252 392.882 470.023 388.957 470.537C384.967 471.116 380.914 471.373 376.86 471.437C372.742 471.501 368.624 471.309 364.506 470.859C360.388 470.409 356.335 469.573 352.281 468.802C348.292 467.967 343.852 467.389 340.184 469.573C337.224 471.373 335.037 474.779 336.002 478.313C336.324 479.534 338.19 479.02 337.868 477.799Z" fill="url(#paint2_linear)"/>
<path d="M269.149 139.645C270.372 139.645 270.372 137.717 269.149 137.717C267.927 137.717 267.927 139.645 269.149 139.645Z" fill="url(#paint3_linear)"/>
<path d="M111.121 480.305C112.987 480.498 113.952 478.763 114.145 477.157C114.403 475.164 113.566 473.301 112.73 471.501C110.864 467.388 108.097 463.661 104.687 460.705C101.019 457.492 96.7727 455.435 92.2686 453.7C87.5715 451.965 82.6814 450.616 78.1774 448.366C70.1988 444.446 64.0218 437.634 59.8395 429.923C57.7161 426.003 56.1075 421.761 54.9494 417.456C53.5981 412.379 52.6973 407.174 51.2174 402.161C48.708 393.935 43.3675 385.067 34.2951 383.139C33.2656 382.946 32.2361 382.818 31.1422 382.753C29.9197 382.753 29.9197 384.681 31.1422 384.681C39.9573 384.81 45.9413 392.907 48.5793 400.49C50.2523 405.181 51.1531 410.13 52.3113 415.014C53.3408 419.384 54.692 423.625 56.5579 427.738C60.0968 435.385 65.3087 442.326 72.1934 447.21C75.861 449.845 80.0433 451.644 84.29 453.122C88.7941 454.729 93.4268 456.078 97.6735 458.327C101.534 460.384 105.009 463.34 107.647 466.874C108.934 468.609 110.027 470.409 110.928 472.337C111.636 473.879 112.601 475.743 112.086 477.542C111.958 478.12 111.7 478.506 111.057 478.442C109.899 478.249 109.899 480.177 111.121 480.305Z" fill="url(#paint4_linear)"/>
<path d="M108.998 499.906C109.834 496.821 108.226 493.737 105.781 491.873C102.821 489.559 99.0248 489.431 95.4215 489.945C91.4322 490.523 87.5716 491.552 83.6467 492.13C79.5287 492.708 75.4107 493.03 71.2284 493.094C67.1104 493.158 62.9924 492.965 58.8744 492.516C55.0138 492.066 51.0888 491.487 47.2926 490.331C43.4319 489.174 40.0861 487.182 36.5472 485.382C33.137 483.647 29.5981 482.362 25.8018 481.784C17.3728 480.498 8.81511 482.105 0.707821 484.418C-0.514706 484.74 4.21023e-05 486.603 1.22257 486.282C8.23602 484.226 15.5712 482.812 22.9063 483.39C26.5096 483.647 30.0485 484.483 33.33 485.961C36.8046 487.503 39.9574 489.559 43.4319 491.037C46.9065 492.451 50.6384 493.287 54.306 493.865C58.1666 494.443 62.0272 494.829 65.9522 494.958C73.8021 495.279 81.652 494.636 89.3089 493.094C93.4269 492.258 97.9953 490.78 102.113 492.13C105.073 493.094 108.033 496.114 107.132 499.456C106.81 500.548 108.676 501.063 108.998 499.906Z" fill="url(#paint5_linear)"/>
<path d="M215.487 125.956C213.492 114.71 214.972 103.207 218.382 92.4109C221.792 81.4861 227.197 71.3325 233.245 61.693C236.656 56.1663 240.259 50.7682 243.926 45.37C244.634 44.3418 242.961 43.3779 242.253 44.4061C235.755 54.1099 229.192 63.8137 223.916 74.2243C218.639 84.5708 214.65 95.6241 213.235 107.192C212.462 113.618 212.527 120.108 213.685 126.471C213.814 127.692 215.68 127.177 215.487 125.956Z" fill="black"/>
<path d="M241.031 37.1443C240.773 36.5017 241.095 35.9876 241.61 35.5377C242.382 35.0236 243.218 35.1521 244.055 35.4092C245.084 35.7305 245.985 36.4374 246.822 37.0158C247.594 37.5299 248.302 38.1725 248.688 39.0079C249.267 40.4217 248.881 42.2211 247.658 43.1851C246.436 44.0848 244.57 44.149 243.347 43.1851C241.803 41.9641 241.481 39.6506 241.224 37.7869C241.159 37.2728 240.838 36.823 240.259 36.823C239.808 36.823 239.229 37.2728 239.294 37.7869C239.615 40.1647 240.001 42.7995 241.867 44.4703C243.669 46.0127 246.564 46.2055 248.559 44.8559C250.489 43.4421 251.326 40.8073 250.489 38.5581C250.039 37.2728 249.074 36.3731 248.044 35.5377C246.95 34.7023 245.728 33.9311 244.441 33.5455C242.961 33.0314 241.417 33.16 240.194 34.1882C239.165 35.0236 238.521 36.4374 239.036 37.7227C239.229 38.2368 239.68 38.5581 240.194 38.3653C240.773 38.2368 241.159 37.6584 241.031 37.1443Z" fill="black"/>
<path d="M243.476 23.0706C251.841 26.6051 259.111 32.4531 264.195 39.9719C264.902 41.0001 266.575 40.0362 265.867 39.008C260.591 31.2321 253.127 25.0628 244.441 21.3998C243.926 21.207 243.412 21.2712 243.09 21.7211C242.897 22.1709 243.025 22.8778 243.476 23.0706Z" fill="black"/>
<path d="M240.259 11.3104C251.841 15.5518 262.2 22.8778 270.243 32.2603C272.495 34.8951 274.554 37.7227 276.356 40.6145C276.999 41.6428 278.672 40.6788 278.029 39.6506C271.337 28.8543 261.75 19.9217 250.618 13.8809C247.465 12.1458 244.184 10.732 240.838 9.44675C239.615 8.9969 239.101 10.8605 240.259 11.3104Z" fill="black"/>
<path d="M237.878 1.92789C253.128 8.03293 266.768 17.801 277.578 30.0753C280.602 33.5455 283.433 37.2728 286.007 41.1286C286.715 42.1568 288.388 41.1929 287.68 40.1647C278.415 26.1552 265.803 14.395 251.133 6.16928C247.015 3.8558 242.768 1.86363 238.393 0.0642508C237.299 -0.385594 236.784 1.47805 237.878 1.92789Z" fill="black"/>
</g>
<defs>
<linearGradient id="paint0_linear" x1="208.915" y1="92.1692" x2="211.8" y2="514.625" gradientUnits="userSpaceOnUse">
<stop stop-color="white"/>
<stop offset="0.9988" stop-color="#BBCAF9"/>
</linearGradient>
<linearGradient id="paint1_linear" x1="331.491" y1="409.972" x2="413.865" y2="409.972" gradientUnits="userSpaceOnUse">
<stop stop-color="white"/>
<stop offset="0.9988"/>
</linearGradient>
<linearGradient id="paint2_linear" x1="336.407" y1="469.363" x2="444.17" y2="469.363" gradientUnits="userSpaceOnUse">
<stop stop-color="white"/>
<stop offset="0.9988"/>
</linearGradient>
<linearGradient id="paint3_linear" x1="268.248" y1="138.702" x2="270.113" y2="138.702" gradientUnits="userSpaceOnUse">
<stop stop-color="white"/>
<stop offset="0.9988"/>
</linearGradient>
<linearGradient id="paint4_linear" x1="31.1505" y1="431.547" x2="113.524" y2="431.547" gradientUnits="userSpaceOnUse">
<stop/>
<stop offset="1" stop-color="white"/>
</linearGradient>
<linearGradient id="paint5_linear" x1="0.845388" y1="490.944" x2="108.608" y2="490.944" gradientUnits="userSpaceOnUse">
<stop/>
<stop offset="1" stop-color="white"/>
</linearGradient>
<clipPath id="clip0">
<rect width="445" height="558" fill="white"/>
</clipPath>
</defs>
</svg>
