<svg width="52" height="39" viewBox="0 0 52 39" fill="none" xmlns="http://www.w3.org/2000/svg">
<path d="M41.3544 38.1523H5.89608C4.74962 38.1523 3.80789 37.2313 3.80789 36.1102V4.63788C3.80789 3.91714 4.42207 3.31653 5.15907 3.31653H41.3544C42.5008 3.31653 43.4425 4.23747 43.4425 5.35862V36.1102C43.4425 37.2714 42.5008 38.1523 41.3544 38.1523Z" fill="#5375FF"/>
<path d="M45.1212 11.2915C44.2205 11.1714 43.3606 11.1714 42.5417 11.3716C41.6819 11.5718 40.863 10.9312 40.863 10.0502V3.24327C40.863 2.12212 39.9212 1.20117 38.7748 1.20117H3.31652C2.17006 1.20117 1.22833 2.12212 1.22833 3.24327V33.9948C1.22833 35.116 2.17006 36.0369 3.31652 36.0369H12.2835C13.0205 36.0369 13.5937 35.4363 13.5527 34.7155C13.5527 34.5554 13.5527 34.3952 13.5527 34.2351C13.5118 29.7104 17.2787 26.0266 21.9055 26.0266C26.5323 26.0266 30.2992 29.7104 30.2992 34.2351C30.2992 34.3952 30.2992 34.5554 30.2992 34.7155C30.2583 35.4363 30.7905 36.0369 31.5275 36.0369H38.7338C39.8803 36.0369 40.822 35.116 40.822 33.9948V25.5862C40.822 24.7053 41.6409 24.0646 42.5008 24.2648C42.9921 24.385 43.4834 24.425 44.0157 24.425C47.9874 24.425 51.1811 21.0615 50.7307 17.0975C50.4031 14.1745 48.0693 11.732 45.1212 11.2915Z" stroke="black" stroke-width="2" stroke-miterlimit="10"/>
</svg>
