<svg width="41" height="39" viewBox="0 0 41 39" fill="none" xmlns="http://www.w3.org/2000/svg">
<g clip-path="url(#clip0)">
<path d="M38.5216 39H5.84402C4.46715 39 3.36566 37.9125 3.36566 36.5531V12.1441C3.36566 10.7847 4.46715 9.69714 5.84402 9.69714H38.5216C39.8985 9.69714 41 10.7847 41 12.1441V36.5531C41 37.8823 39.8985 39 38.5216 39Z" fill="#5375FF"/>
<path d="M33.9933 8.79091C35.309 8.79091 36.4104 9.84823 36.4104 11.1774V32.0822C36.4104 33.3812 35.3396 34.4687 33.9933 34.4687H4.55895C3.24328 34.4687 2.14179 33.4114 2.14179 32.0822V11.1472C2.14179 9.84823 3.21269 8.7607 4.55895 8.7607H33.9933V8.79091ZM33.9933 6.67627H4.55895C2.05 6.67627 0 8.67007 0 11.1472V32.0519C0 34.5291 2.05 36.5531 4.55895 36.5531H33.9933C36.5022 36.5531 38.5522 34.5291 38.5522 32.0519V11.1472C38.5522 8.67007 36.5022 6.67627 33.9933 6.67627Z" fill="black"/>
<path d="M19.4903 2.35631C21.9381 2.35631 23.9269 4.25949 24.0492 6.64601H26.4358C26.344 2.9605 23.2843 0 19.4903 0C15.6963 0 12.6672 2.9605 12.5448 6.67622H14.9313C15.0537 4.25949 17.0425 2.35631 19.4903 2.35631Z" fill="black"/>
<path d="M37.9403 14.8327L21.3567 20.7235C20.0104 21.2068 18.5724 21.1766 17.2567 20.6631L0.917908 14.2285" stroke="black" stroke-miterlimit="10"/>
<path d="M19.1231 23.8954C18.2052 23.8954 17.4403 23.1402 17.4403 22.2339V20.1193C17.4403 19.213 18.2052 18.4578 19.1231 18.4578C20.0411 18.4578 20.806 19.213 20.806 20.1193V22.2339C20.806 23.1402 20.0411 23.8954 19.1231 23.8954Z" fill="#5375FF"/>
<path d="M19.1231 19.213C19.6433 19.213 20.0411 19.6057 20.0411 20.1192V22.2339C20.0411 22.7474 19.6433 23.1402 19.1231 23.1402C18.603 23.1402 18.2052 22.7474 18.2052 22.2339V20.1192C18.2052 19.6057 18.603 19.213 19.1231 19.213ZM19.1231 17.7025C17.7769 17.7025 16.6754 18.79 16.6754 20.1192V22.2339C16.6754 23.5631 17.7769 24.6506 19.1231 24.6506C20.4694 24.6506 21.5709 23.5631 21.5709 22.2339V20.1192C21.5709 18.7598 20.4694 17.7025 19.1231 17.7025Z" fill="black"/>
</g>
<defs>
<clipPath id="clip0">
<rect width="41" height="39" fill="white"/>
</clipPath>
</defs>
</svg>
