<svg width="56" height="39" viewBox="0 0 56 39" fill="none" xmlns="http://www.w3.org/2000/svg">
<g clip-path="url(#clip0)">
<path d="M54.1252 35.5875H31.1165C30.0696 35.5875 29.2417 34.7344 29.2417 33.7106V14.0644C29.2417 13.0163 30.0939 12.1875 31.1165 12.1875H54.1252C55.1722 12.1875 56 13.0406 56 14.0644V33.6863C56 34.7344 55.1478 35.5875 54.1252 35.5875Z" fill="#5375FF"/>
<path d="M30.0695 9.99377H52.1774C53.4435 9.99377 54.4904 11.1394 54.4904 12.5531V30.9807C54.4904 32.3944 53.4435 33.54 52.1774 33.54H30.0695C28.8035 33.54 27.7565 32.3944 27.7565 30.9807V12.5531C27.7565 11.1394 28.8035 9.99377 30.0695 9.99377Z" stroke="black" stroke-width="2" stroke-miterlimit="10"/>
<path d="M48.6226 33.5887L50.1078 33.6131L51.593 33.6375C52.2017 33.6375 52.5913 34.3931 52.2747 34.9781L51.52 36.3919L50.7652 37.8056C50.4487 38.3906 49.6695 38.3906 49.3774 37.7812L48.6469 36.3431L47.9165 34.905C47.6243 34.32 48.0139 33.5887 48.6226 33.5887Z" stroke="black" stroke-width="2" stroke-miterlimit="10"/>
<path d="M34.4035 29.4938H4.55305C3.38435 29.4938 2.43478 28.5431 2.43478 27.3731V4.55813C2.43478 3.38813 3.38435 2.4375 4.55305 2.4375H34.3791C35.5478 2.4375 36.4974 3.38813 36.4974 4.55813V27.3488C36.5217 28.5431 35.5722 29.4938 34.4035 29.4938Z" fill="#5375FF"/>
<path d="M31.6522 0.731201H3.65218C2.04522 0.731201 0.730438 2.04745 0.730438 3.6562V24.6187C0.730438 26.2274 2.04522 27.5437 3.65218 27.5437H31.6522C33.2591 27.5437 34.5739 26.2274 34.5739 24.6187V3.6562C34.5739 2.04745 33.2591 0.731201 31.6522 0.731201Z" stroke="black" stroke-width="2" stroke-miterlimit="10"/>
<path d="M8.13218 27.5924L6.2574 27.6168L4.38262 27.6412C3.60349 27.6412 3.11653 28.4943 3.5061 29.1768L4.45566 30.7855L5.40523 32.3943C5.79479 33.0768 6.79305 33.0524 7.15827 32.3699L8.08349 30.7368L9.0087 29.1037C9.42262 28.4212 8.91131 27.5924 8.13218 27.5924Z" stroke="black" stroke-width="2" stroke-miterlimit="10"/>
<path d="M3.89566 8.53125H30.1913" stroke="black" stroke-width="2" stroke-miterlimit="10" stroke-linecap="round"/>
<path d="M3.40869 13.4062H21.4261" stroke="black" stroke-width="2" stroke-miterlimit="10" stroke-linecap="round"/>
<path d="M3.40869 18.525H15.0956" stroke="black" stroke-width="2" stroke-miterlimit="10" stroke-linecap="round"/>
</g>
<defs>
<clipPath id="clip0">
<rect width="56" height="39" fill="white"/>
</clipPath>
</defs>
</svg>
