<svg width="54" height="32" viewBox="0 0 54 32" fill="none" xmlns="http://www.w3.org/2000/svg">
<g clip-path="url(#clip0)">
<path d="M50.8271 32H5.76611C4.02713 32 2.59323 30.5538 2.59323 28.8V5.81536C2.59323 4.06151 4.02713 2.61536 5.76611 2.61536H50.7966C52.5356 2.61536 53.9695 4.06151 53.9695 5.81536V28.8C54 30.5538 52.5661 32 50.8271 32Z" fill="#5375FF"/>
<path d="M47.4712 29.2308H4.6983C2.59322 29.2308 0.915253 27.5385 0.915253 25.4154V4.73848C0.915253 2.6154 2.59322 0.923096 4.6983 0.923096H47.5017C49.5763 0.923096 51.2847 2.6154 51.2847 4.73848V25.4462C51.2542 27.5385 49.5763 29.2308 47.4712 29.2308Z" stroke="black" stroke-width="2" stroke-miterlimit="10"/>
<path d="M47.7458 8.00002C49.6835 8.00002 51.2543 6.4158 51.2543 4.46156C51.2543 2.50732 49.6835 0.923096 47.7458 0.923096C45.8081 0.923096 44.2373 2.50732 44.2373 4.46156C44.2373 6.4158 45.8081 8.00002 47.7458 8.00002Z" stroke="black" stroke-width="2" stroke-miterlimit="10"/>
<path d="M4.57628 28.7692C6.51396 28.7692 8.08476 27.185 8.08476 25.2308C8.08476 23.2765 6.51396 21.6923 4.57628 21.6923C2.63861 21.6923 1.06781 23.2765 1.06781 25.2308C1.06781 27.185 2.63861 28.7692 4.57628 28.7692Z" stroke="black" stroke-width="2" stroke-miterlimit="10"/>
<path d="M26.5491 10.9535C25.4091 11.0015 24.8391 11.3975 24.8391 12.1415C24.8391 12.8015 25.3731 13.2695 26.4411 13.5455C26.4531 13.5455 26.4711 13.5515 26.4951 13.5635C26.5311 13.5635 26.5551 13.5695 26.5671 13.5815C26.6631 13.6055 26.7111 13.5635 26.7111 13.4555V11.1155C26.7111 11.0075 26.6571 10.9535 26.5491 10.9535ZM26.6211 18.9995C27.7011 18.9035 28.2411 18.4655 28.2411 17.6855C28.2411 17.3495 28.1151 17.0675 27.8631 16.8395C27.6231 16.5995 27.2091 16.3895 26.6211 16.2095C26.5131 16.1855 26.4591 16.2215 26.4591 16.3175V18.8555C26.4591 18.9515 26.5131 18.9995 26.6211 18.9995ZM24.4071 15.4355C22.7751 14.6555 21.9591 13.5575 21.9591 12.1415C21.9591 11.0975 22.3491 10.2635 23.1291 9.63954C23.9211 9.01554 25.0611 8.69754 26.5491 8.68554C26.6571 8.68554 26.7111 8.63154 26.7111 8.52354V7.91154C26.7111 7.63554 26.8071 7.39554 26.9991 7.19154C27.2031 6.98754 27.4431 6.88554 27.7191 6.88554H27.7551C28.0311 6.88554 28.2711 6.98754 28.4751 7.19154C28.6791 7.39554 28.7811 7.63554 28.7811 7.91154V8.66754C28.7811 8.76354 28.8291 8.82354 28.9251 8.84754C29.2851 8.89554 29.5491 8.93754 29.7171 8.97354C30.0051 9.03354 30.2391 9.18954 30.4191 9.44154C30.5991 9.68154 30.6891 9.95154 30.6891 10.2515V10.6835C30.6891 10.9235 30.5871 11.1155 30.3831 11.2595C30.1911 11.4035 29.9751 11.4455 29.7351 11.3855C29.3751 11.2895 29.1051 11.2235 28.9251 11.1875C28.8291 11.1635 28.7811 11.1995 28.7811 11.2955V13.9595C28.7811 14.0435 28.7751 14.1035 28.7631 14.1395C28.7391 14.2475 28.7631 14.3195 28.8351 14.3555C29.6631 14.7395 30.2511 15.1955 30.5991 15.7235C30.9591 16.2395 31.1391 16.8755 31.1391 17.6315C31.1391 18.7595 30.7551 19.6355 29.9871 20.2595C29.2311 20.8835 28.1031 21.2195 26.6031 21.2675C26.5071 21.2675 26.4591 21.3215 26.4591 21.4295V22.0595C26.4591 22.3355 26.3571 22.5755 26.1531 22.7795C25.9611 22.9835 25.7271 23.0855 25.4511 23.0855H25.4151C25.1391 23.0855 24.8991 22.9835 24.6951 22.7795C24.4911 22.5755 24.3891 22.3355 24.3891 22.0595V21.3035C24.3891 21.1955 24.3471 21.1355 24.2631 21.1235C23.9511 21.0755 23.6391 21.0035 23.3271 20.9075C23.0391 20.8235 22.8051 20.6555 22.6251 20.4035C22.4451 20.1395 22.3551 19.8515 22.3551 19.5395V19.0175C22.3551 18.7895 22.4511 18.6155 22.6431 18.4955C22.8471 18.3635 23.0571 18.3455 23.2731 18.4415C23.5971 18.5735 23.9211 18.6815 24.2451 18.7655C24.3411 18.7895 24.3891 18.7475 24.3891 18.6395V16.0115C24.3891 15.9035 24.4131 15.7775 24.4611 15.6335C24.5091 15.5375 24.4911 15.4715 24.4071 15.4355Z" fill="black"/>
</g>
<defs>
<clipPath id="clip0">
<rect width="54" height="32" fill="white"/>
</clipPath>
</defs>
</svg>
