<svg width="64" height="38" viewBox="0 0 64 38" fill="none" xmlns="http://www.w3.org/2000/svg">
<path d="M21.3448 1.03735V36.9627" stroke="black" stroke-width="2" stroke-miterlimit="10" stroke-linecap="round"/>
<path d="M25.2631 6.60418L59.6348 16.182C62.1783 16.9081 63.9656 19.2247 63.9656 21.8872V22.475C63.9656 25.2411 62.0752 27.6269 59.4286 28.2493L25.0913 36.4786C24.232 36.6861 23.4071 36.0291 23.4071 35.1301V8.05641C23.4071 7.05368 24.3351 6.36214 25.2631 6.60418Z" fill="#5375FF"/>
<path d="M24.3351 4.18377L57.3319 13.3812C60.0473 14.1419 61.9377 16.6315 61.9377 19.4668C61.9377 22.4058 59.9441 24.9299 57.1257 25.6214L24.232 33.4358C22.754 33.7816 21.3448 32.6751 21.3448 31.1192V6.46585C21.3448 4.87531 22.8228 3.76885 24.3351 4.18377Z" stroke="black" stroke-width="2" stroke-miterlimit="10"/>
<path d="M13.783 15.1101C12.58 14.4185 13.2674 13.2083 12.0644 12.5168C10.8614 11.8253 10.174 13.0355 8.97098 12.3439C7.76797 11.6524 8.45541 10.4422 7.2524 9.75065C6.04939 9.05911 5.36196 10.2693 4.15895 9.57776C2.95594 8.88623 3.64338 7.67603 2.44037 6.9845" stroke="black" stroke-miterlimit="10" stroke-linecap="round"/>
<path d="M14.2299 25.0337C12.8894 25.4141 12.5457 24.0656 11.2052 24.4459C9.86467 24.8263 10.2428 26.1402 8.90227 26.5205C7.56177 26.9009 7.21806 25.5524 5.87756 25.9327C4.53707 26.3131 4.91516 27.627 3.57466 28.0073C2.23417 28.3877 1.89045 27.0392 0.549957 27.4195" stroke="black" stroke-miterlimit="10" stroke-linecap="round"/>
<path d="M46.8829 33.3666C44.2019 34.0236 41.5209 32.3985 40.7648 29.7706L38.1525 30.393C39.2524 34.4731 43.377 36.9626 47.5016 35.9945C51.6262 34.9918 54.2041 30.9117 53.3448 26.7625L50.7325 27.3848C51.2481 30.0818 49.5639 32.7443 46.8829 33.3666Z" fill="black"/>
<path d="M29 14L38 23" stroke="black" stroke-width="2" stroke-miterlimit="10" stroke-linecap="round"/>
<path d="M38 14L29 23" stroke="black" stroke-width="2" stroke-miterlimit="10" stroke-linecap="round"/>
</svg>
