<svg width="50" height="30" viewBox="0 0 50 30" fill="none" xmlns="http://www.w3.org/2000/svg">
<g clip-path="url(#clip0)">
<path d="M44.9891 10.0171C43.6639 10.0139 42.3917 10.5369 41.4524 11.4713C40.513 12.4057 39.9834 13.6749 39.98 14.9996C39.9693 16.3147 39.4392 17.5722 38.5052 18.4983C37.5712 19.4244 36.309 19.944 34.9935 19.944C33.6781 19.944 32.4159 19.4244 31.4819 18.4983C30.5479 17.5722 30.0178 16.3147 30.007 14.9996C30.007 13.0298 29.6189 11.0793 28.8649 9.25938C28.1109 7.43949 27.0056 5.78591 25.6123 4.39303C24.219 3.00015 22.565 1.89525 20.7445 1.14143C18.9241 0.387611 16.973 -0.000366211 15.0025 -0.000366211C13.0321 -0.000366211 11.081 0.387611 9.26057 1.14143C7.44014 1.89525 5.78606 3.00015 4.39276 4.39303C2.99947 5.78591 1.89424 7.43949 1.1402 9.25938C0.38615 11.0793 -0.00195315 13.0298 -0.00195312 14.9996C-0.00195312 16.3277 0.525779 17.6014 1.46515 18.5405C2.40452 19.4796 3.67858 20.0071 5.00705 20.0071C6.33552 20.0071 7.60958 19.4796 8.54895 18.5405C9.48832 17.6014 10.016 16.3277 10.016 14.9996C10.0268 13.6846 10.5569 12.4271 11.4909 11.501C12.4249 10.5749 13.6871 10.0552 15.0025 10.0552C16.318 10.0552 17.5802 10.5749 18.5142 11.501C19.4482 12.4271 19.9783 13.6846 19.989 14.9996C19.989 18.9779 21.5699 22.7932 24.3838 25.6062C27.1977 28.4193 31.0141 29.9996 34.9935 29.9996C38.973 29.9996 42.7894 28.4193 45.6033 25.6062C48.4172 22.7932 49.998 18.9779 49.998 14.9996C49.9947 13.6749 49.4651 12.4057 48.5257 11.4713C47.5864 10.5369 46.3142 10.0139 44.9891 10.0171Z" fill="white"/>
</g>
<defs>
<clipPath id="clip0">
<rect width="50" height="30" fill="white"/>
</clipPath>
</defs>
</svg>
